<svg width="399" height="502" viewBox="0 0 399 502" fill="none" xmlns="http://www.w3.org/2000/svg">
<path d="M263.403 242.469C263.403 242.469 305.521 270.893 321.94 297.75C340.668 328.384 349.991 351.51 344.332 387.03C336.614 435.477 307.885 459.749 264.916 483.137C214.621 510.513 147.447 502.517 115.346 493.619C74.645 482.337 50.5628 470.154 23.7139 433.686C1.14735 403.035 -5.21098 374.343 4.20174 338.032C12.2316 307.055 28.9348 292.333 54.9215 273.781C75.1717 259.324 127.847 242.545 127.847 242.545C127.847 242.545 73.7582 286.661 62.27 311.899C50.1313 338.566 52.3843 360.583 65.2312 386.884C84.2557 425.831 118.604 440.201 161.696 443.508C200.558 446.491 233.055 438.401 259.734 409.833C284.099 383.742 292.921 355.986 283.665 321.48C275.751 291.976 232.928 262.154 232.851 262.101C244.701 253.674 251.4 249.326 263.403 242.469ZM236.482 3.88827C248.939 0.327602 280.124 -5.25055 298.219 10.9693C315.78 26.711 317.761 46.866 312.998 69.6716C308.143 92.915 297.379 107.353 293.697 133.552C290.356 157.327 295.764 174.376 311.645 192.301C329.386 212.324 375.597 216.45 375.746 216.463C375.598 216.465 333.327 217.164 307.249 223.584C280.048 230.281 264.65 235.883 240.729 250.523C192.875 279.812 149.32 361.593 149.271 361.685L186.519 288.762C186.582 288.652 208.933 249.887 197.209 229.652C187.949 213.67 173.25 210.873 155.964 206.709C134.439 201.524 80.5951 193.327 80.4251 193.301C80.6628 193.28 170.41 185.431 207.106 162.057C228.636 148.343 242.446 140.33 256.08 118.695C273.044 91.7771 285.161 50.2075 272.853 38.9071C256.876 24.2391 235.969 29.4428 217.413 40.6863C195.892 53.7267 192.582 74.3915 190.875 99.562C189.316 122.55 205.811 156.572 205.873 156.699C195.037 162.594 189.983 165.233 175.476 169.575C175.476 169.575 154.697 124.792 157.061 97.2021C159.2 72.2339 164.443 56.6646 180.539 37.497C196.952 17.9526 214.971 10.0368 236.482 3.88827ZM354.62 125.227L342.762 126.275L340.711 165.648L330.83 166.522L332.881 127.148L320.832 128.213L321.297 119.498L355.086 116.511L354.62 125.227ZM395.713 160.787L385.832 161.659L386.792 143.071L368.304 144.705L367.344 163.294L357.463 164.167L359.98 116.079L369.861 115.205L368.77 135.99L387.257 134.357L388.349 113.572L398.23 112.698L395.713 160.787Z" fill="url(#paint0_linear_158_838)"/>
<defs>
<linearGradient id="paint0_linear_158_838" x1="235.212" y1="-4.792" x2="163.955" y2="502.225" gradientUnits="userSpaceOnUse">
<stop stop-color="#00C2FF"/>
<stop offset="1" stop-color="#9CE7FF"/>
</linearGradient>
</defs>
</svg>
