<svg width="498" height="602" viewBox="0 0 498 602" fill="none" xmlns="http://www.w3.org/2000/svg">
<g filter="url(#filter0_d_158_838)">
<path d="M313.003 292.068C313.003 292.068 355.121 320.492 371.54 347.35C390.268 377.984 399.591 401.11 393.932 436.63C386.214 485.077 357.485 509.348 314.516 532.736C264.221 560.112 197.047 552.116 164.946 543.218C124.245 531.937 100.163 519.753 73.314 483.286C50.7475 452.634 44.3891 423.943 53.8018 387.631C61.8317 356.654 78.5349 341.933 104.522 323.38C124.772 308.923 177.447 292.145 177.447 292.145C177.447 292.145 123.358 336.261 111.87 361.499C99.7314 388.166 101.984 410.183 114.831 436.483C133.856 475.431 168.204 489.801 211.296 493.108C250.158 496.091 282.655 488.001 309.334 459.432C333.699 433.342 342.521 405.586 333.265 371.08C325.351 341.575 282.528 311.754 282.451 311.701C294.301 303.274 301 298.926 313.003 292.068ZM286.082 53.4879C298.539 49.9272 329.724 44.3491 347.819 60.5689C365.38 76.3106 367.361 96.4656 362.598 119.271C357.743 142.515 346.979 156.952 343.297 183.152C339.956 206.926 345.365 223.976 361.246 241.9C378.987 261.924 425.197 266.049 425.347 266.063C425.198 266.065 382.927 266.764 356.849 273.184C329.648 279.88 314.25 285.482 290.329 300.123C242.475 329.412 198.92 411.193 198.871 411.285L236.119 338.361C236.182 338.252 258.533 299.487 246.809 279.251C237.549 263.27 222.85 260.472 205.564 256.309C184.039 251.124 130.195 242.926 130.025 242.9C130.263 242.88 220.01 235.031 256.706 211.657C278.237 197.942 292.046 189.93 305.68 168.295C322.644 141.377 334.761 99.8072 322.453 88.5067C306.476 73.8387 285.569 79.0424 267.013 90.2859C245.493 103.326 242.183 123.991 240.475 149.162C238.916 172.149 255.411 206.171 255.473 206.299C244.637 212.194 239.583 214.833 225.076 219.174C225.076 219.174 204.297 174.392 206.661 146.802C208.8 121.834 214.043 106.264 230.139 87.0966C246.552 67.5522 264.571 59.6364 286.082 53.4879ZM404.22 174.826L392.362 175.875L390.311 215.248L380.43 216.121L382.481 176.748L370.432 177.813L370.897 169.098L404.686 166.111L404.22 174.826ZM445.313 210.386L435.432 211.259L436.392 192.671L417.904 194.305L416.944 212.893L407.063 213.767L409.58 165.678L419.461 164.805L418.37 185.59L436.857 183.956L437.949 163.172L447.83 162.298L445.313 210.386Z" fill="url(#paint0_linear_158_838)"/>
</g>
<defs>
<filter id="filter0_d_158_838" x="9.91821e-05" y="-0.000389099" width="497.429" height="601.197" filterUnits="userSpaceOnUse" color-interpolation-filters="sRGB">
<feFlood flood-opacity="0" result="BackgroundImageFix"/>
<feColorMatrix in="SourceAlpha" type="matrix" values="0 0 0 0 0 0 0 0 0 0 0 0 0 0 0 0 0 0 127 0" result="hardAlpha"/>
<feOffset/>
<feGaussianBlur stdDeviation="24.8"/>
<feComposite in2="hardAlpha" operator="out"/>
<feColorMatrix type="matrix" values="0 0 0 0 0 0 0 0 0 0.479311 0 0 0 0 0.898077 0 0 0 1 0"/>
<feBlend mode="normal" in2="BackgroundImageFix" result="effect1_dropShadow_158_838"/>
<feBlend mode="normal" in="SourceGraphic" in2="effect1_dropShadow_158_838" result="shape"/>
</filter>
<linearGradient id="paint0_linear_158_838" x1="284.812" y1="44.8076" x2="213.555" y2="551.825" gradientUnits="userSpaceOnUse">
<stop stop-color="#00C2FF"/>
<stop offset="1" stop-color="#9CE7FF"/>
</linearGradient>
</defs>
</svg>
