<svg width="87" height="129" viewBox="0 0 87 129" fill="none" xmlns="http://www.w3.org/2000/svg">
<path d="M53.1438 0.147656C56.0872 -0.215755 59.3783 0.00610354 62.0481 1.78926C67.1645 5.20693 68.3751 10.334 67.9827 16.218C67.8436 18.3033 67.7158 19.5252 67.5696 20.3723C67.4208 21.2345 67.2523 21.7067 67.0481 22.2785C66.8923 22.7148 66.7131 23.2166 66.4934 24.0295C65.773 26.696 64.2435 29.8218 62.3772 32.9904C60.5071 36.1655 58.2813 39.4126 56.1487 42.3273C54.0156 45.2428 51.9713 47.832 50.4602 49.6916C49.7047 50.6214 49.0816 51.3691 48.6477 51.885C48.5131 52.045 48.3958 52.1822 48.2991 52.2961C50.8887 54.4228 53.3873 56.1105 55.4671 57.3781C56.6243 58.0671 57.6758 58.6503 58.5403 59.1086C59.2671 59.4939 59.8615 59.7921 60.2727 59.9934C60.478 60.0938 60.6383 60.1708 60.7464 60.2219C60.8001 60.2473 60.8421 60.2658 60.8694 60.2785C60.8827 60.2847 60.893 60.2901 60.8997 60.2932C60.9027 60.2945 60.9059 60.2954 60.9075 60.2961L60.9085 60.2971L61.4602 60.55L61.385 60.6535C62.8558 61.386 73.0156 66.5664 77.6565 72.1809C83.3708 79.0937 86.4898 84.4794 86.3245 93.4445C86.099 105.673 79.8175 112.661 69.9729 119.926C58.4497 128.429 41.5059 128.786 33.2317 127.703C22.7411 126.33 16.3418 124.158 8.40946 116.087C1.7423 109.303 -0.835396 102.44 0.233679 93.1496C1.14575 85.2237 4.69916 79.3716 10.4993 73.8898C16.2994 68.4081 19.3017 66.8159 25.5774 62.0627C29.3824 59.1809 35.3428 55.4407 37.1253 54.3342C35.9317 53.0594 34.8981 51.742 34.1224 50.4045C30.0051 43.3053 29.6327 35.8067 29.3294 29.8059C29.3055 29.3341 29.2818 28.8709 29.2571 28.4182C29.0859 25.2747 29.1898 22.6569 29.7669 20.1467C30.3448 17.633 31.3915 15.2515 33.0765 12.5705C36.5411 7.05811 40.8372 4.42628 46.0052 2.1418C47.5179 1.47313 50.1933 0.512046 53.1438 0.147656ZM41.428 58.2746C38.9979 59.7735 31.0842 64.7866 26.5852 69.2307C23.4251 72.3523 20.8483 74.804 18.5696 77.8254C16.2911 80.8465 15.2163 83.3809 13.9173 86.5822C12.6182 89.7839 12.9734 97.0449 17.0774 103.092C23.1552 112.047 32.1779 114.402 42.9837 113.724C52.7289 113.112 60.5094 109.987 66.1321 102.009C71.2668 94.7228 72.4877 87.5646 68.9886 79.3674C66.7896 74.2162 59.9063 69.678 56.4036 67.6291L56.3655 67.6828L55.9847 67.4963L56.0266 67.4094H56.0257L55.9837 67.4963L55.9808 67.4943C55.9786 67.4932 55.9748 67.4913 55.971 67.4895C55.9627 67.4854 55.9502 67.4795 55.9349 67.4719C55.9026 67.4559 55.854 67.4316 55.7923 67.4006C55.6682 67.3381 55.4859 67.2455 55.2532 67.1252C54.787 66.8841 54.1162 66.5298 53.2962 66.0783C51.6559 65.1751 49.4143 63.8791 47.013 62.3068C45.1896 61.113 43.2612 59.7512 41.428 58.2746ZM56.1683 10.3947C51.9888 7.53111 47.2508 9.34356 43.0745 12.7336C40.7582 14.614 39.3346 17.8161 38.5286 21.0656C37.7257 24.3033 37.5589 27.4946 37.6858 29.2492C37.9376 32.7277 38.6538 38.4524 41.4817 44.2824L41.762 44.8469L42.0042 45.3C42.5754 46.3276 43.2982 47.3339 44.1321 48.3078C44.2032 48.2043 44.2845 48.0865 44.3743 47.9553C44.7604 47.3908 45.3135 46.5776 45.9808 45.5842C47.3155 43.597 49.1069 40.8891 50.9329 38.0041C52.7597 35.1178 54.6188 32.0588 56.0901 29.3703C57.5735 26.6598 58.6265 24.3888 58.8938 23.051C59.2173 21.4319 59.591 18.9648 59.3431 16.5402C59.0949 14.1145 58.2347 11.8109 56.1683 10.3947Z" fill="url(#paint0_linear_158_862)"/>
<defs>
<linearGradient id="paint0_linear_158_862" x1="43.1654" y1="0" x2="43.1654" y2="128.141" gradientUnits="userSpaceOnUse">
<stop stop-color="#00C2FF"/>
<stop offset="1" stop-color="#9CE7FF"/>
</linearGradient>
</defs>
</svg>
