<svg width="106" height="103" viewBox="0 0 106 103" fill="none" xmlns="http://www.w3.org/2000/svg">
<path d="M78.954 -5.58763e-05C77.2191 8.29515 74.6366 13.4025 73.3224 22.753C72.1299 31.238 72.3589 33.2482 78.0531 39.6491C84.4246 46.8111 105.826 50.9042 105.826 50.9042C105.826 50.9042 90.642 51.1416 81.2825 53.4319C71.5373 55.8166 66.0209 57.8134 57.4525 63.0341C40.3015 73.4843 24.7033 102.692 24.7033 102.692L38.0355 76.6715C38.0716 76.6092 46.056 62.7946 41.8544 55.5758C38.5331 49.8698 33.2649 48.8684 27.07 47.3789C19.3454 45.5215 0.00986033 42.5799 6.12318e-05 42.5784C6.12318e-05 42.5784 38.7594 38.7591 51.9212 30.4126C59.6335 25.5217 74.0727 7.71929 78.954 -5.58763e-05Z" fill="url(#paint0_linear_158_881)"/>
<defs>
<linearGradient id="paint0_linear_158_881" x1="59.8593" y1="-2.68363" x2="44.6556" y2="105.497" gradientUnits="userSpaceOnUse">
<stop stop-color="#00C2FF"/>
<stop offset="1" stop-color="#9CE7FF"/>
</linearGradient>
</defs>
</svg>
