<svg width="141" height="56" viewBox="0 0 141 56" fill="none" xmlns="http://www.w3.org/2000/svg">
<path d="M26.379 26.0147C26.4315 26.0404 31.3204 28.4352 33.4679 31.046C35.9305 34.0399 37.2754 36.3722 37.2042 40.255C37.107 45.551 34.3991 48.5783 30.1564 51.7247C25.1902 55.4073 17.8883 55.5618 14.3224 55.0928C9.80116 54.4982 7.04282 53.5573 3.62415 50.0616C0.750877 47.1235 -0.360045 44.1509 0.100717 40.127C0.493847 36.6944 2.05908 34.8693 4.55872 32.4952C6.50221 30.6495 11.8603 28.0719 11.8859 28.0596C11.8708 28.0759 6.76494 33.5941 5.91712 36.461C5.02009 39.4946 5.59174 41.8147 7.36048 44.4337C9.97975 48.3118 13.8678 49.332 18.5245 49.0382C22.7244 48.7731 26.0779 47.4202 28.5011 43.9649C30.7141 40.8092 31.2406 37.7086 29.7326 34.1583C28.4459 31.1293 23.4387 28.5882 23.4074 28.5723C24.5475 27.4935 25.1989 26.9282 26.379 26.0147ZM19.9152 0.909247C21.1936 0.341342 24.4447 -0.72403 26.6232 0.738348C28.7371 2.15759 29.2517 4.28315 29.0851 6.79304C28.9152 9.35108 27.9816 11.0566 27.9816 13.9132C27.9816 16.5053 28.816 18.247 30.7833 19.9249C32.9847 21.8022 38.0001 21.545 38.0001 21.545C38.0001 21.545 33.4799 22.2558 30.7833 23.336C27.9756 24.4608 26.4129 25.291 24.0753 27.2159C19.3964 31.0689 15.9669 40.4757 15.9669 40.4757L18.8536 32.1192C18.8536 32.1192 20.6684 27.628 19.1085 25.6378C17.8785 24.0686 16.2651 23.9901 14.3546 23.8048C11.9802 23.5743 6.11921 23.5064 6.0763 23.5059C6.13984 23.4913 15.5865 21.3062 19.1515 18.2618C21.2473 16.472 22.6038 15.4078 23.7365 12.8897C25.1457 9.75666 25.816 5.12977 24.3302 4.10651C22.4017 2.77846 20.2447 3.64905 18.4298 5.12995C16.3248 6.84765 16.281 9.10733 16.4767 11.8243C16.6559 14.3102 18.9386 17.7081 18.9386 17.7081C17.8689 18.501 17.3676 18.859 15.882 19.5411C15.8569 19.5022 12.9878 15.0526 12.8263 12.0801C12.6798 9.37834 13.0056 7.63414 14.4386 5.34284C15.8997 3.00657 17.7078 1.88986 19.9152 0.909247Z" fill="white"/>
<path d="M47.16 24.6414V10.2414H58.86C59.3533 10.2414 59.8 10.3614 60.2 10.6014C60.6133 10.8414 60.94 11.168 61.18 11.5814C61.4333 11.9947 61.56 12.448 61.56 12.9414V21.9414C61.56 22.4347 61.4333 22.888 61.18 23.3014C60.94 23.7147 60.6133 24.0414 60.2 24.2814C59.8 24.5214 59.3533 24.6414 58.86 24.6414H47.16ZM49.92 22.2214H58.78C58.8733 22.2214 58.9533 22.188 59.02 22.1214C59.1 22.0547 59.14 21.968 59.14 21.8614V13.0214C59.14 12.9147 59.1 12.828 59.02 12.7614C58.9533 12.6947 58.8733 12.6614 58.78 12.6614H49.92C49.8133 12.6614 49.72 12.6947 49.64 12.7614C49.5733 12.828 49.54 12.9147 49.54 13.0214V21.8614C49.54 21.968 49.5733 22.0547 49.64 22.1214C49.72 22.188 49.8133 22.2214 49.92 22.2214ZM62.8397 24.6414V10.2414H65.2197V24.6414H62.8397ZM66.517 24.6414V10.2414H79.737V12.6614H68.937V16.2414H77.637V18.6414H68.937V22.2214H79.737V24.6414H66.517ZM83.6095 24.6414C83.1162 24.6414 82.6629 24.5214 82.2495 24.2814C81.8495 24.0414 81.5295 23.7147 81.2895 23.3014C81.0495 22.888 80.9295 22.4347 80.9295 21.9414V20.9814H83.3295V21.8614C83.3295 21.968 83.3629 22.0547 83.4295 22.1214C83.4962 22.188 83.5829 22.2214 83.6895 22.2214H92.5295C92.6362 22.2214 92.7229 22.188 92.7895 22.1214C92.8695 22.0547 92.9095 21.968 92.9095 21.8614V19.0014C92.9095 18.908 92.8695 18.828 92.7895 18.7614C92.7229 18.6814 92.6362 18.6414 92.5295 18.6414H83.6095C83.1162 18.6414 82.6629 18.5214 82.2495 18.2814C81.8495 18.0414 81.5295 17.7214 81.2895 17.3214C81.0495 16.908 80.9295 16.4547 80.9295 15.9614V12.9414C80.9295 12.448 81.0495 11.9947 81.2895 11.5814C81.5295 11.168 81.8495 10.8414 82.2495 10.6014C82.6629 10.3614 83.1162 10.2414 83.6095 10.2414H92.6295C93.1229 10.2414 93.5695 10.3614 93.9695 10.6014C94.3829 10.8414 94.7095 11.168 94.9495 11.5814C95.2029 11.9947 95.3295 12.448 95.3295 12.9414V13.9014H92.9095V13.0214C92.9095 12.9147 92.8695 12.828 92.7895 12.7614C92.7229 12.6947 92.6362 12.6614 92.5295 12.6614H83.6895C83.5829 12.6614 83.4962 12.6947 83.4295 12.7614C83.3629 12.828 83.3295 12.9147 83.3295 13.0214V15.8814C83.3295 15.9747 83.3629 16.0614 83.4295 16.1414C83.4962 16.208 83.5829 16.2414 83.6895 16.2414H92.6295C93.1229 16.2414 93.5695 16.3614 93.9695 16.6014C94.3829 16.8414 94.7095 17.168 94.9495 17.5814C95.2029 17.9814 95.3295 18.428 95.3295 18.9214V21.9414C95.3295 22.4347 95.2029 22.888 94.9495 23.3014C94.7095 23.7147 94.3829 24.0414 93.9695 24.2814C93.5695 24.5214 93.1229 24.6414 92.6295 24.6414H83.6095ZM47.12 46.6414V32.2414H49.86L59.1 43.2414V32.2414H61.52V46.6414H58.78L49.52 35.6214V46.6414H47.12ZM61.8806 46.6414V46.1014L73.4606 32.2414H76.1606V46.6414H73.7606V42.9014H67.6806L64.5406 46.6414H61.8806ZM69.7006 40.5014H73.7606V35.7214L69.7006 40.5014ZM82.9289 46.6414V34.6614H76.9289V32.2414H91.3289V34.6614H85.3289V46.6414H82.9289ZM90.9447 46.6414V46.1014L102.525 32.2414H105.225V46.6414H102.825V42.9014H96.7447L93.6047 46.6414H90.9447ZM98.7647 40.5014H102.825V35.7214L98.7647 40.5014ZM106.733 46.6414V32.2214H109.133V44.2214H121.133V46.6414H106.733ZM121.339 46.6414V32.2414H123.719V46.6414H121.339ZM127.596 46.6414C127.103 46.6414 126.65 46.5214 126.236 46.2814C125.836 46.0414 125.516 45.7147 125.276 45.3014C125.036 44.888 124.916 44.4347 124.916 43.9414V42.9814H127.316V43.8614C127.316 43.968 127.35 44.0547 127.416 44.1214C127.483 44.188 127.57 44.2214 127.676 44.2214H136.516C136.623 44.2214 136.71 44.188 136.776 44.1214C136.856 44.0547 136.896 43.968 136.896 43.8614V41.0014C136.896 40.908 136.856 40.828 136.776 40.7614C136.71 40.6814 136.623 40.6414 136.516 40.6414H127.596C127.103 40.6414 126.65 40.5214 126.236 40.2814C125.836 40.0414 125.516 39.7214 125.276 39.3214C125.036 38.908 124.916 38.4547 124.916 37.9614V34.9414C124.916 34.448 125.036 33.9947 125.276 33.5814C125.516 33.168 125.836 32.8414 126.236 32.6014C126.65 32.3614 127.103 32.2414 127.596 32.2414H136.616C137.11 32.2414 137.556 32.3614 137.956 32.6014C138.37 32.8414 138.696 33.168 138.936 33.5814C139.19 33.9947 139.316 34.448 139.316 34.9414V35.9014H136.896V35.0214C136.896 34.9147 136.856 34.828 136.776 34.7614C136.71 34.6947 136.623 34.6614 136.516 34.6614H127.676C127.57 34.6614 127.483 34.6947 127.416 34.7614C127.35 34.828 127.316 34.9147 127.316 35.0214V37.8814C127.316 37.9747 127.35 38.0614 127.416 38.1414C127.483 38.208 127.57 38.2414 127.676 38.2414H136.616C137.11 38.2414 137.556 38.3614 137.956 38.6014C138.37 38.8414 138.696 39.168 138.936 39.5814C139.19 39.9814 139.316 40.428 139.316 40.9214V43.9414C139.316 44.4347 139.19 44.888 138.936 45.3014C138.696 45.7147 138.37 46.0414 137.956 46.2814C137.556 46.5214 137.11 46.6414 136.616 46.6414H127.596Z" fill="white"/>
</svg>
