<svg width="483" height="95" viewBox="0 0 483 95" fill="none" xmlns="http://www.w3.org/2000/svg">
<path d="M-0.000179589 34.6079V0.0479088H27.8398C29.0558 0.0479088 30.1758 0.351909 31.1998 0.959908C32.2238 1.56791 33.0398 2.38391 33.6478 3.40791C34.2558 4.39991 34.5598 5.50391 34.5598 6.71991V27.9359C34.5598 29.1519 34.2558 30.2719 33.6478 31.2959C33.0398 32.2879 32.2238 33.0879 31.1998 33.6959C30.1758 34.3039 29.0558 34.6079 27.8398 34.6079H-0.000179589ZM6.86382 28.2239H27.5518C27.7118 28.2239 27.8558 28.1759 27.9838 28.0799C28.1118 27.9519 28.1758 27.8079 28.1758 27.6479V7.00791C28.1758 6.84791 28.1118 6.71991 27.9838 6.62391C27.8558 6.49591 27.7118 6.43191 27.5518 6.43191H6.86382C6.70382 6.43191 6.55982 6.49591 6.43182 6.62391C6.33582 6.71991 6.28782 6.84791 6.28782 7.00791V27.6479C6.28782 27.8079 6.33582 27.9519 6.43182 28.0799C6.55982 28.1759 6.70382 28.2239 6.86382 28.2239ZM40.0311 34.6079V0.0479088H71.8551V6.43191H46.4151V14.1119H66.8631V20.5439H46.4151V28.2239H71.8551V34.6079H40.0311ZM76.7331 34.6079V0.0479088H83.1171V14.1119H91.2291L103.037 0.0479088H109.949V1.87191L96.9891 17.3279L109.997 32.7839V34.6079H103.037L91.2291 20.5439H83.1171V34.6079H76.7331ZM112.295 34.6079V32.9279L139.607 0.0479088H146.471V34.6079H140.135V25.8239H126.407L119.063 34.6079H112.295ZM131.687 19.5359H140.135V9.64791L131.687 19.5359ZM152.107 34.6079V0.0479088H159.067L180.283 25.2959V0.0479088H186.667V34.6079H179.707L158.443 9.31191V34.6079H152.107ZM206.812 34.6079V0.0479088H238.636V6.43191H213.196V14.1119H233.644V20.5439H213.196V34.6079H206.812ZM238.764 34.6079V32.9279L266.076 0.0479088H272.94V34.6079H266.604V25.8239H252.876L245.532 34.6079H238.764ZM258.156 19.5359H266.604V9.64791L258.156 19.5359ZM285.104 34.6079C283.888 34.6079 282.768 34.3039 281.744 33.6959C280.752 33.0879 279.952 32.2879 279.344 31.2959C278.736 30.2719 278.432 29.1519 278.432 27.9359V25.2959H284.768V27.6479C284.768 27.8079 284.816 27.9519 284.912 28.0799C285.04 28.1759 285.184 28.2239 285.344 28.2239H306.032C306.192 28.2239 306.32 28.1759 306.416 28.0799C306.544 27.9519 306.608 27.8079 306.608 27.6479V21.0719C306.608 20.9119 306.544 20.7839 306.416 20.6879C306.32 20.5919 306.192 20.5439 306.032 20.5439H285.104C283.888 20.5439 282.768 20.2399 281.744 19.6319C280.752 19.0239 279.952 18.2239 279.344 17.2319C278.736 16.2079 278.432 15.0719 278.432 13.8239V6.71991C278.432 5.50391 278.736 4.39991 279.344 3.40791C279.952 2.38391 280.752 1.56791 281.744 0.959908C282.768 0.351909 283.888 0.0479088 285.104 0.0479088H306.32C307.536 0.0479088 308.64 0.351909 309.632 0.959908C310.656 1.56791 311.472 2.38391 312.08 3.40791C312.688 4.39991 312.992 5.50391 312.992 6.71991V9.35991H306.608V7.00791C306.608 6.84791 306.544 6.71991 306.416 6.62391C306.32 6.49591 306.192 6.43191 306.032 6.43191H285.344C285.184 6.43191 285.04 6.49591 284.912 6.62391C284.816 6.71991 284.768 6.84791 284.768 7.00791V13.5839C284.768 13.7439 284.816 13.8719 284.912 13.9679C285.04 14.0639 285.184 14.1119 285.344 14.1119H306.32C307.536 14.1119 308.64 14.4159 309.632 15.0239C310.656 15.6319 311.472 16.4479 312.08 17.4719C312.688 18.4639 312.992 19.5839 312.992 20.8319V27.9359C312.992 29.1519 312.688 30.2719 312.08 31.2959C311.472 32.2879 310.656 33.0879 309.632 33.6959C308.64 34.3039 307.536 34.6079 306.32 34.6079H285.104ZM317.56 34.6079V0.0479088H323.848V34.6079H317.56ZM328.546 34.6079V-9.05991e-05H334.882V28.2239H363.106V34.6079H328.546ZM365.952 34.6079V0.0479088H372.336V14.1119H380.448L392.256 0.0479088H399.168V1.87191L386.208 17.3279L399.216 32.7839V34.6079H392.256L380.448 20.5439H372.336V34.6079H365.952ZM410.73 34.6079C409.514 34.6079 408.394 34.3039 407.37 33.6959C406.378 33.0879 405.578 32.2879 404.97 31.2959C404.362 30.2719 404.058 29.1519 404.058 27.9359V6.71991C404.058 5.50391 404.362 4.39991 404.97 3.40791C405.578 2.38391 406.378 1.56791 407.37 0.959908C408.394 0.351909 409.514 0.0479088 410.73 0.0479088H431.946C433.162 0.0479088 434.266 0.351909 435.258 0.959908C436.282 1.56791 437.098 2.38391 437.706 3.40791C438.314 4.39991 438.618 5.50391 438.618 6.71991V27.9359C438.618 29.1519 438.314 30.2719 437.706 31.2959C437.098 32.2879 436.282 33.0879 435.258 33.6959C434.266 34.3039 433.162 34.6079 431.946 34.6079H410.73ZM410.97 28.2239H431.61C431.77 28.2239 431.914 28.1759 432.042 28.0799C432.17 27.9519 432.234 27.8079 432.234 27.6479V7.00791C432.234 6.84791 432.17 6.71991 432.042 6.62391C431.914 6.49591 431.77 6.43191 431.61 6.43191H410.97C410.81 6.43191 410.666 6.49591 410.538 6.62391C410.442 6.71991 410.394 6.84791 410.394 7.00791V27.6479C410.394 27.8079 410.442 27.9519 410.538 28.0799C410.666 28.1759 410.81 28.2239 410.97 28.2239ZM443.904 34.6079V0.0479088H450.864L463.392 14.9759L475.872 0.0479088H482.88V34.6079H476.496V9.26391L463.392 24.8639L450.24 9.31191V34.6079H443.904ZM148.066 94.6079C146.85 94.6079 145.73 94.3039 144.706 93.6959C143.714 93.0879 142.914 92.2879 142.306 91.2959C141.698 90.2719 141.394 89.1519 141.394 87.9359V60.0479H147.73V87.6479C147.73 87.8079 147.778 87.9519 147.874 88.0799C148.002 88.1759 148.146 88.2239 148.306 88.2239H168.946C169.106 88.2239 169.25 88.1759 169.378 88.0799C169.506 87.9519 169.57 87.8079 169.57 87.6479V60.0479H175.954V87.9359C175.954 89.1519 175.65 90.2719 175.042 91.2959C174.434 92.2879 173.618 93.0879 172.594 93.6959C171.602 94.3039 170.498 94.6079 169.282 94.6079H148.066ZM181.24 94.6079V60.0479H188.2L209.416 85.2959V60.0479H215.8V94.6079H208.84L187.576 69.3119V94.6079H181.24ZM227.705 94.6079C226.489 94.6079 225.369 94.3039 224.345 93.6959C223.353 93.0879 222.553 92.2879 221.945 91.2959C221.337 90.2719 221.033 89.1519 221.033 87.9359V85.2959H227.369V87.6479C227.369 87.8079 227.417 87.9519 227.513 88.0799C227.641 88.1759 227.785 88.2239 227.945 88.2239H248.633C248.793 88.2239 248.921 88.1759 249.017 88.0799C249.145 87.9519 249.209 87.8079 249.209 87.6479V81.0719C249.209 80.9119 249.145 80.7839 249.017 80.6879C248.921 80.5919 248.793 80.5439 248.633 80.5439H227.705C226.489 80.5439 225.369 80.2399 224.345 79.6319C223.353 79.0239 222.553 78.2239 221.945 77.2319C221.337 76.2079 221.033 75.0719 221.033 73.8239V66.7199C221.033 65.5039 221.337 64.3999 221.945 63.4079C222.553 62.3839 223.353 61.5679 224.345 60.9599C225.369 60.3519 226.489 60.0479 227.705 60.0479H248.921C250.137 60.0479 251.241 60.3519 252.233 60.9599C253.257 61.5679 254.073 62.3839 254.681 63.4079C255.289 64.3999 255.593 65.5039 255.593 66.7199V69.3599H249.209V67.0079C249.209 66.8479 249.145 66.7199 249.017 66.6239C248.921 66.4959 248.793 66.4319 248.633 66.4319H227.945C227.785 66.4319 227.641 66.4959 227.513 66.6239C227.417 66.7199 227.369 66.8479 227.369 67.0079V73.5839C227.369 73.7439 227.417 73.8719 227.513 73.9679C227.641 74.0639 227.785 74.1119 227.945 74.1119H248.921C250.137 74.1119 251.241 74.4159 252.233 75.0239C253.257 75.6319 254.073 76.4479 254.681 77.4719C255.289 78.4639 255.593 79.5839 255.593 80.8319V87.9359C255.593 89.1519 255.289 90.2719 254.681 91.2959C254.073 92.2879 253.257 93.0879 252.233 93.6959C251.241 94.3039 250.137 94.6079 248.921 94.6079H227.705ZM260.162 94.6079V60.0479H266.45V94.6079H260.162ZM271.475 94.6079V60.0479H277.859V74.1119H285.971L297.779 60.0479H304.691V61.8719L291.731 77.3279L304.739 92.7839V94.6079H297.779L285.971 80.5439H277.859V94.6079H271.475ZM307.037 94.6079V92.9279L334.349 60.0479H341.213V94.6079H334.877V85.8239H321.149L313.805 94.6079H307.037ZM326.429 79.5359H334.877V69.6479L326.429 79.5359Z" fill="white"/>
</svg>
