<svg width="229" height="18" viewBox="0 0 229 18" fill="none" xmlns="http://www.w3.org/2000/svg">
<path d="M0.000398487 17.3042V0.0241985H13.9204C14.5284 0.0241985 15.0884 0.176198 15.6004 0.480198C16.1124 0.784198 16.5204 1.1922 16.8244 1.7042C17.1284 2.2002 17.2804 2.7522 17.2804 3.3602V13.9682C17.2804 14.5762 17.1284 15.1362 16.8244 15.6482C16.5204 16.1442 16.1124 16.5442 15.6004 16.8482C15.0884 17.1522 14.5284 17.3042 13.9204 17.3042H0.000398487ZM3.4324 14.1122H13.7764C13.8564 14.1122 13.9284 14.0882 13.9924 14.0402C14.0564 13.9762 14.0884 13.9042 14.0884 13.8242V3.5042C14.0884 3.4242 14.0564 3.3602 13.9924 3.3122C13.9284 3.2482 13.8564 3.2162 13.7764 3.2162H3.4324C3.3524 3.2162 3.2804 3.2482 3.2164 3.3122C3.1684 3.3602 3.1444 3.4242 3.1444 3.5042V13.8242C3.1444 13.9042 3.1684 13.9762 3.2164 14.0402C3.2804 14.0882 3.3524 14.1122 3.4324 14.1122ZM19.632 17.3042V0.0241985H22.776V17.3042H19.632ZM25.1488 17.3042V0.0241985H41.0608V3.2162H28.3408V7.0562H38.5648V10.2722H28.3408V14.1122H41.0608V17.3042H25.1488ZM46.7398 17.3042C46.1318 17.3042 45.5718 17.1522 45.0598 16.8482C44.5638 16.5442 44.1638 16.1442 43.8598 15.6482C43.5558 15.1362 43.4038 14.5762 43.4038 13.9682V12.6482H46.5718V13.8242C46.5718 13.9042 46.5958 13.9762 46.6438 14.0402C46.7078 14.0882 46.7798 14.1122 46.8598 14.1122H57.2038C57.2838 14.1122 57.3478 14.0882 57.3958 14.0402C57.4598 13.9762 57.4918 13.9042 57.4918 13.8242V10.5362C57.4918 10.4562 57.4598 10.3922 57.3958 10.3442C57.3478 10.2962 57.2838 10.2722 57.2038 10.2722H46.7398C46.1318 10.2722 45.5718 10.1202 45.0598 9.8162C44.5638 9.5122 44.1638 9.1122 43.8598 8.6162C43.5558 8.1042 43.4038 7.5362 43.4038 6.9122V3.3602C43.4038 2.7522 43.5558 2.2002 43.8598 1.7042C44.1638 1.1922 44.5638 0.784198 45.0598 0.480198C45.5718 0.176198 46.1318 0.0241985 46.7398 0.0241985H57.3478C57.9558 0.0241985 58.5078 0.176198 59.0038 0.480198C59.5158 0.784198 59.9238 1.1922 60.2278 1.7042C60.5318 2.2002 60.6838 2.7522 60.6838 3.3602V4.6802H57.4918V3.5042C57.4918 3.4242 57.4598 3.3602 57.3958 3.3122C57.3478 3.2482 57.2838 3.2162 57.2038 3.2162H46.8598C46.7798 3.2162 46.7078 3.2482 46.6438 3.3122C46.5958 3.3602 46.5718 3.4242 46.5718 3.5042V6.7922C46.5718 6.8722 46.5958 6.9362 46.6438 6.9842C46.7078 7.0322 46.7798 7.0562 46.8598 7.0562H57.3478C57.9558 7.0562 58.5078 7.2082 59.0038 7.5122C59.5158 7.8162 59.9238 8.2242 60.2278 8.7362C60.5318 9.2322 60.6838 9.7922 60.6838 10.4162V13.9682C60.6838 14.5762 60.5318 15.1362 60.2278 15.6482C59.9238 16.1442 59.5158 16.5442 59.0038 16.8482C58.5078 17.1522 57.9558 17.3042 57.3478 17.3042H46.7398ZM70.6399 17.3042V0.0241985H74.1199L84.7279 12.6482V0.0241985H87.9199V17.3042H84.4399L73.8079 4.6562V17.3042H70.6399ZM89.2886 17.3042V16.4642L102.945 0.0241985H106.377V17.3042H103.209V12.9122H96.3446L92.6726 17.3042H89.2886ZM98.9846 9.7682H103.209V4.8242L98.9846 9.7682ZM115.387 17.3042V3.2162H108.331V0.0241985H125.611V3.2162H118.579V17.3042H115.387ZM126.086 17.3042V16.4642L139.742 0.0241985H143.174V17.3042H140.006V12.9122H133.142L129.47 17.3042H126.086ZM135.782 9.7682H140.006V4.8242L135.782 9.7682ZM146.015 17.3042V0.000198841H149.183V14.1122H163.295V17.3042H146.015ZM164.359 17.3042V0.0241985H167.503V17.3042H164.359ZM173.091 17.3042C172.483 17.3042 171.923 17.1522 171.411 16.8482C170.915 16.5442 170.515 16.1442 170.211 15.6482C169.907 15.1362 169.755 14.5762 169.755 13.9682V12.6482H172.923V13.8242C172.923 13.9042 172.947 13.9762 172.995 14.0402C173.059 14.0882 173.131 14.1122 173.211 14.1122H183.555C183.635 14.1122 183.699 14.0882 183.747 14.0402C183.811 13.9762 183.843 13.9042 183.843 13.8242V10.5362C183.843 10.4562 183.811 10.3922 183.747 10.3442C183.699 10.2962 183.635 10.2722 183.555 10.2722H173.091C172.483 10.2722 171.923 10.1202 171.411 9.8162C170.915 9.5122 170.515 9.1122 170.211 8.6162C169.907 8.1042 169.755 7.5362 169.755 6.9122V3.3602C169.755 2.7522 169.907 2.2002 170.211 1.7042C170.515 1.1922 170.915 0.784198 171.411 0.480198C171.923 0.176198 172.483 0.0241985 173.091 0.0241985H183.699C184.307 0.0241985 184.859 0.176198 185.355 0.480198C185.867 0.784198 186.275 1.1922 186.579 1.7042C186.883 2.2002 187.035 2.7522 187.035 3.3602V4.6802H183.843V3.5042C183.843 3.4242 183.811 3.3602 183.747 3.3122C183.699 3.2482 183.635 3.2162 183.555 3.2162H173.211C173.131 3.2162 173.059 3.2482 172.995 3.3122C172.947 3.3602 172.923 3.4242 172.923 3.5042V6.7922C172.923 6.8722 172.947 6.9362 172.995 6.9842C173.059 7.0322 173.131 7.0562 173.211 7.0562H183.699C184.307 7.0562 184.859 7.2082 185.355 7.5122C185.867 7.8162 186.275 8.2242 186.579 8.7362C186.883 9.2322 187.035 9.7922 187.035 10.4162V13.9682C187.035 14.5762 186.883 15.1362 186.579 15.6482C186.275 16.1442 185.867 16.5442 185.355 16.8482C184.859 17.1522 184.307 17.3042 183.699 17.3042H173.091ZM196.943 17.3042V0.0241985H200.087V12.7442L210.647 0.0241985H214.031V1.0802L200.375 17.3042H196.943ZM215.241 17.3042V0.0241985H218.385V17.3042H215.241ZM220.374 17.3042V0.0241985H223.518V17.3042H220.374ZM225.507 17.3042V0.0241985H228.651V17.3042H225.507Z" fill="white"/>
</svg>
