<svg width="768" height="127" viewBox="0 0 768 127" fill="none" xmlns="http://www.w3.org/2000/svg">
<path d="M8.60691e-05 46.144V0.0640411H42.4321V8.57604H8.51209V18.816H35.7761V27.392H8.51209V46.144H8.60691e-05ZM82.9206 46.144L69.0326 29.568H80.1046L92.1366 43.776V46.144H82.9206ZM46.1846 46.144V0.12804H83.3046C84.9259 0.12804 86.4193 0.533374 87.7846 1.34404C89.1499 2.15471 90.2379 3.24271 91.0486 4.60804C91.8593 5.93071 92.2646 7.40271 92.2646 9.02404V21.44C92.2646 23.0614 91.8593 24.5547 91.0486 25.92C90.2379 27.2854 89.1499 28.3734 87.7846 29.184C86.4193 29.952 84.9259 30.336 83.3046 30.336L54.6326 30.4V46.144H46.1846ZM55.4006 21.824H82.9206C83.1339 21.824 83.3259 21.76 83.4966 21.632C83.6673 21.504 83.7526 21.3334 83.7526 21.12V9.34404C83.7526 9.13071 83.6673 8.96004 83.4966 8.83204C83.3259 8.66138 83.1339 8.57604 82.9206 8.57604H55.4006C55.1873 8.57604 54.9953 8.66138 54.8246 8.83204C54.6966 8.96004 54.6326 9.13071 54.6326 9.34404V21.12C54.6326 21.3334 54.6966 21.504 54.8246 21.632C54.9953 21.76 55.1873 21.824 55.4006 21.824ZM99.1251 46.144V0.0640411H141.557V8.57604H107.637V18.816H134.901V27.392H107.637V37.632H141.557V46.144H99.1251ZM184.605 46.144V39.104L193.949 36.8V37.632H199.453V46.144H184.605ZM156.765 46.144C155.144 46.144 153.65 45.7387 152.285 44.928C150.962 44.1174 149.896 43.0507 149.085 41.728C148.274 40.3627 147.869 38.8694 147.869 37.248V8.96004C147.869 7.33871 148.274 5.86671 149.085 4.54404C149.896 3.17871 150.962 2.09071 152.285 1.28004C153.65 0.469374 155.144 0.0640411 156.765 0.0640411H185.053C186.674 0.0640411 188.146 0.469374 189.469 1.28004C190.834 2.09071 191.922 3.17871 192.733 4.54404C193.544 5.86671 193.949 7.33871 193.949 8.96004V37.248C193.949 38.8694 193.544 40.3627 192.733 41.728C191.922 43.0507 190.834 44.1174 189.469 44.928C188.146 45.7387 186.674 46.144 185.053 46.144H156.765ZM157.085 37.632H184.605C184.818 37.632 185.01 37.568 185.181 37.44C185.352 37.2694 185.437 37.0774 185.437 36.864V9.34404C185.437 9.13071 185.352 8.96004 185.181 8.83204C185.01 8.66138 184.818 8.57604 184.605 8.57604H157.085C156.872 8.57604 156.68 8.66138 156.509 8.83204C156.381 8.96004 156.317 9.13071 156.317 9.34404V36.864C156.317 37.0774 156.381 37.2694 156.509 37.44C156.68 37.568 156.872 37.632 157.085 37.632ZM213.328 46.144C211.706 46.144 210.213 45.7387 208.848 44.928C207.525 44.1174 206.458 43.0507 205.648 41.728C204.837 40.3627 204.432 38.8694 204.432 37.248V0.0640411H212.88V36.864C212.88 37.0774 212.944 37.2694 213.072 37.44C213.242 37.568 213.434 37.632 213.648 37.632H241.168C241.381 37.632 241.573 37.568 241.744 37.44C241.914 37.2694 242 37.0774 242 36.864V0.0640411H250.512V37.248C250.512 38.8694 250.106 40.3627 249.296 41.728C248.485 43.0507 247.397 44.1174 246.032 44.928C244.709 45.7387 243.237 46.144 241.616 46.144H213.328ZM257.688 46.144V0.0640411H300.12V8.57604H266.2V18.816H293.464V27.392H266.2V37.632H300.12V46.144H257.688ZM306.56 46.144V0.0640411H315.84L344.128 33.728V0.0640411H352.64V46.144H343.36L315.008 12.416V46.144H306.56ZM376.322 46.144V8.57604H357.506V0.0640411H403.586V8.57604H384.834V46.144H376.322ZM408.436 46.144V4.19617e-05H416.884V37.632H454.516V46.144H408.436ZM465.355 46.144V28.864L444.107 0.0640411H454.091L469.643 19.584L485.003 0.0640411H495.179L473.867 28.928V46.144H465.355ZM515.04 46.144V43.904L551.456 0.0640411H560.608V46.144H552.16V34.432H533.856L524.064 46.144H515.04ZM540.896 26.048H552.16V12.864L540.896 26.048ZM576.826 46.144C575.205 46.144 573.711 45.7387 572.346 44.928C571.023 44.1174 569.957 43.0507 569.146 41.728C568.335 40.3627 567.93 38.8694 567.93 37.248V33.728H576.378V36.864C576.378 37.0774 576.442 37.2694 576.57 37.44C576.741 37.568 576.933 37.632 577.146 37.632H604.73C604.943 37.632 605.114 37.568 605.242 37.44C605.413 37.2694 605.498 37.0774 605.498 36.864V28.096C605.498 27.8827 605.413 27.712 605.242 27.584C605.114 27.456 604.943 27.392 604.73 27.392H576.826C575.205 27.392 573.711 26.9867 572.346 26.176C571.023 25.3654 569.957 24.2987 569.146 22.976C568.335 21.6107 567.93 20.096 567.93 18.432V8.96004C567.93 7.33871 568.335 5.86671 569.146 4.54404C569.957 3.17871 571.023 2.09071 572.346 1.28004C573.711 0.469374 575.205 0.0640411 576.826 0.0640411H605.114C606.735 0.0640411 608.207 0.469374 609.53 1.28004C610.895 2.09071 611.983 3.17871 612.794 4.54404C613.605 5.86671 614.01 7.33871 614.01 8.96004V12.48H605.498V9.34404C605.498 9.13071 605.413 8.96004 605.242 8.83204C605.114 8.66138 604.943 8.57604 604.73 8.57604H577.146C576.933 8.57604 576.741 8.66138 576.57 8.83204C576.442 8.96004 576.378 9.13071 576.378 9.34404V18.112C576.378 18.3254 576.442 18.496 576.57 18.624C576.741 18.752 576.933 18.816 577.146 18.816H605.114C606.735 18.816 608.207 19.2214 609.53 20.032C610.895 20.8427 611.983 21.9307 612.794 23.296C613.605 24.6187 614.01 26.112 614.01 27.776V37.248C614.01 38.8694 613.605 40.3627 612.794 41.728C611.983 43.0507 610.895 44.1174 609.53 44.928C608.207 45.7387 606.735 46.144 605.114 46.144H576.826ZM621.061 46.144V0.0640411H629.573V18.816H640.389L656.133 0.0640411H665.349V2.49604L648.069 23.104L665.413 43.712V46.144H656.133L640.389 27.392H629.573V46.144H621.061ZM672.125 46.144V0.0640411H714.557V8.57604H680.637V18.816H707.901V27.392H680.637V37.632H714.557V46.144H672.125ZM721.125 46.144V0.0640411H758.245C759.866 0.0640411 761.36 0.469374 762.725 1.28004C764.09 2.09071 765.178 3.17871 765.989 4.54404C766.8 5.86671 767.205 7.33871 767.205 8.96004V37.248C767.205 38.8694 766.8 40.3627 765.989 41.728C765.178 43.0507 764.09 44.1174 762.725 44.928C761.36 45.7387 759.866 46.144 758.245 46.144H721.125ZM730.277 37.632H757.861C758.074 37.632 758.266 37.568 758.437 37.44C758.608 37.2694 758.693 37.0774 758.693 36.864V9.34404C758.693 9.13071 758.608 8.96004 758.437 8.83204C758.266 8.66138 758.074 8.57604 757.861 8.57604H730.277C730.064 8.57604 729.872 8.66138 729.701 8.83204C729.573 8.96004 729.509 9.13071 729.509 9.34404V36.864C729.509 37.0774 729.573 37.2694 729.701 37.44C729.872 37.568 730.064 37.632 730.277 37.632ZM243.543 126.144V119.104L252.887 116.8V117.632H258.391V126.144H243.543ZM215.703 126.144C214.081 126.144 212.588 125.739 211.223 124.928C209.9 124.117 208.833 123.051 208.023 121.728C207.212 120.363 206.807 118.869 206.807 117.248V88.96C206.807 87.3387 207.212 85.8667 208.023 84.544C208.833 83.1787 209.9 82.0907 211.223 81.28C212.588 80.4694 214.081 80.064 215.703 80.064H243.991C245.612 80.064 247.084 80.4694 248.407 81.28C249.772 82.0907 250.86 83.1787 251.671 84.544C252.481 85.8667 252.887 87.3387 252.887 88.96V117.248C252.887 118.869 252.481 120.363 251.671 121.728C250.86 123.051 249.772 124.117 248.407 124.928C247.084 125.739 245.612 126.144 243.991 126.144H215.703ZM216.023 117.632H243.543C243.756 117.632 243.948 117.568 244.119 117.44C244.289 117.269 244.375 117.077 244.375 116.864V89.344C244.375 89.1307 244.289 88.96 244.119 88.832C243.948 88.6614 243.756 88.576 243.543 88.576H216.023C215.809 88.576 215.617 88.6614 215.447 88.832C215.319 88.96 215.255 89.1307 215.255 89.344V116.864C215.255 117.077 215.319 117.269 215.447 117.44C215.617 117.568 215.809 117.632 216.023 117.632ZM272.265 126.144C270.644 126.144 269.15 125.739 267.785 124.928C266.462 124.117 265.396 123.051 264.585 121.728C263.774 120.363 263.369 118.869 263.369 117.248V80.064H271.817V116.864C271.817 117.077 271.881 117.269 272.009 117.44C272.18 117.568 272.372 117.632 272.585 117.632H300.105C300.318 117.632 300.51 117.568 300.681 117.44C300.852 117.269 300.937 117.077 300.937 116.864V80.064H309.449V117.248C309.449 118.869 309.044 120.363 308.233 121.728C307.422 123.051 306.334 124.117 304.969 124.928C303.646 125.739 302.174 126.144 300.553 126.144H272.265ZM316.625 126.144V80.064H359.057V88.576H325.137V98.816H352.401V107.392H325.137V117.632H359.057V126.144H316.625ZM374.201 126.144C372.58 126.144 371.086 125.739 369.721 124.928C368.398 124.117 367.332 123.051 366.521 121.728C365.71 120.363 365.305 118.869 365.305 117.248V113.728H373.753V116.864C373.753 117.077 373.817 117.269 373.945 117.44C374.116 117.568 374.308 117.632 374.521 117.632H402.105C402.318 117.632 402.489 117.568 402.617 117.44C402.788 117.269 402.873 117.077 402.873 116.864V108.096C402.873 107.883 402.788 107.712 402.617 107.584C402.489 107.456 402.318 107.392 402.105 107.392H374.201C372.58 107.392 371.086 106.987 369.721 106.176C368.398 105.365 367.332 104.299 366.521 102.976C365.71 101.611 365.305 100.096 365.305 98.432V88.96C365.305 87.3387 365.71 85.8667 366.521 84.544C367.332 83.1787 368.398 82.0907 369.721 81.28C371.086 80.4694 372.58 80.064 374.201 80.064H402.489C404.11 80.064 405.582 80.4694 406.905 81.28C408.27 82.0907 409.358 83.1787 410.169 84.544C410.98 85.8667 411.385 87.3387 411.385 88.96V92.48H402.873V89.344C402.873 89.1307 402.788 88.96 402.617 88.832C402.489 88.6614 402.318 88.576 402.105 88.576H374.521C374.308 88.576 374.116 88.6614 373.945 88.832C373.817 88.96 373.753 89.1307 373.753 89.344V98.112C373.753 98.3254 373.817 98.496 373.945 98.624C374.116 98.752 374.308 98.816 374.521 98.816H402.489C404.11 98.816 405.582 99.2214 406.905 100.032C408.27 100.843 409.358 101.931 410.169 103.296C410.98 104.619 411.385 106.112 411.385 107.776V117.248C411.385 118.869 410.98 120.363 410.169 121.728C409.358 123.051 408.27 124.117 406.905 124.928C405.582 125.739 404.11 126.144 402.489 126.144H374.201ZM434.884 126.144V88.576H416.068V80.064H462.148V88.576H443.396V126.144H434.884ZM466.039 126.144V80.064H474.423V126.144H466.039ZM489.39 126.144C487.769 126.144 486.275 125.739 484.91 124.928C483.587 124.117 482.521 123.051 481.71 121.728C480.899 120.363 480.494 118.869 480.494 117.248V88.96C480.494 87.3387 480.899 85.8667 481.71 84.544C482.521 83.1787 483.587 82.0907 484.91 81.28C486.275 80.4694 487.769 80.064 489.39 80.064H517.678C519.299 80.064 520.771 80.4694 522.094 81.28C523.459 82.0907 524.547 83.1787 525.358 84.544C526.169 85.8667 526.574 87.3387 526.574 88.96V117.248C526.574 118.869 526.169 120.363 525.358 121.728C524.547 123.051 523.459 124.117 522.094 124.928C520.771 125.739 519.299 126.144 517.678 126.144H489.39ZM489.71 117.632H517.23C517.443 117.632 517.635 117.568 517.806 117.44C517.977 117.269 518.062 117.077 518.062 116.864V89.344C518.062 89.1307 517.977 88.96 517.806 88.832C517.635 88.6614 517.443 88.576 517.23 88.576H489.71C489.497 88.576 489.305 88.6614 489.134 88.832C489.006 88.96 488.942 89.1307 488.942 89.344V116.864C488.942 117.077 489.006 117.269 489.134 117.44C489.305 117.568 489.497 117.632 489.71 117.632ZM533.622 126.144V80.064H542.902L571.19 113.728V80.064H579.702V126.144H570.422L542.07 92.416V126.144H533.622Z" fill="white"/>
</svg>
