<svg width="460" height="35" viewBox="0 0 460 35" fill="none" xmlns="http://www.w3.org/2000/svg">
<path d="M6.45518e-05 34.6079V0.0479088H31.8241V6.43191H6.38407V14.1119H26.8321V20.5439H6.38407V34.6079H6.45518e-05ZM33.9196 34.6079V0.0479088H40.2076V34.6079H33.9196ZM44.9052 34.6079V-9.05991e-05H51.2412V28.2239H79.4652V34.6079H44.9052ZM88.8394 34.6079C87.6234 34.6079 86.5034 34.3039 85.4794 33.6959C84.4874 33.0879 83.6874 32.2879 83.0794 31.2959C82.4714 30.2719 82.1674 29.1519 82.1674 27.9359V6.71991C82.1674 5.50391 82.4714 4.39991 83.0794 3.40791C83.6874 2.38391 84.4874 1.56791 85.4794 0.959908C86.5034 0.351909 87.6234 0.0479088 88.8394 0.0479088H110.055C111.271 0.0479088 112.375 0.351909 113.367 0.959908C114.391 1.56791 115.207 2.38391 115.815 3.40791C116.423 4.39991 116.727 5.50391 116.727 6.71991V27.9359C116.727 29.1519 116.423 30.2719 115.815 31.2959C115.207 32.2879 114.391 33.0879 113.367 33.6959C112.375 34.3039 111.271 34.6079 110.055 34.6079H88.8394ZM89.0794 28.2239H109.719C109.879 28.2239 110.023 28.1759 110.151 28.0799C110.279 27.9519 110.343 27.8079 110.343 27.6479V7.00791C110.343 6.84791 110.279 6.71991 110.151 6.62391C110.023 6.49591 109.879 6.43191 109.719 6.43191H89.0794C88.9194 6.43191 88.7754 6.49591 88.6474 6.62391C88.5514 6.71991 88.5034 6.84791 88.5034 7.00791V27.6479C88.5034 27.8079 88.5514 27.9519 88.6474 28.0799C88.7754 28.1759 88.9194 28.2239 89.0794 28.2239ZM128.541 34.6079C127.325 34.6079 126.205 34.3039 125.181 33.6959C124.189 33.0879 123.389 32.2879 122.781 31.2959C122.173 30.2719 121.869 29.1519 121.869 27.9359V25.2959H128.205V27.6479C128.205 27.8079 128.253 27.9519 128.349 28.0799C128.477 28.1759 128.621 28.2239 128.781 28.2239H149.469C149.629 28.2239 149.757 28.1759 149.853 28.0799C149.981 27.9519 150.045 27.8079 150.045 27.6479V21.0719C150.045 20.9119 149.981 20.7839 149.853 20.6879C149.757 20.5919 149.629 20.5439 149.469 20.5439H128.541C127.325 20.5439 126.205 20.2399 125.181 19.6319C124.189 19.0239 123.389 18.2239 122.781 17.2319C122.173 16.2079 121.869 15.0719 121.869 13.8239V6.71991C121.869 5.50391 122.173 4.39991 122.781 3.40791C123.389 2.38391 124.189 1.56791 125.181 0.959908C126.205 0.351909 127.325 0.0479088 128.541 0.0479088H149.757C150.973 0.0479088 152.077 0.351909 153.069 0.959908C154.093 1.56791 154.909 2.38391 155.517 3.40791C156.125 4.39991 156.429 5.50391 156.429 6.71991V9.35991H150.045V7.00791C150.045 6.84791 149.981 6.71991 149.853 6.62391C149.757 6.49591 149.629 6.43191 149.469 6.43191H128.781C128.621 6.43191 128.477 6.49591 128.349 6.62391C128.253 6.71991 128.205 6.84791 128.205 7.00791V13.5839C128.205 13.7439 128.253 13.8719 128.349 13.9679C128.477 14.0639 128.621 14.1119 128.781 14.1119H149.757C150.973 14.1119 152.077 14.4159 153.069 15.0239C154.093 15.6319 154.909 16.4479 155.517 17.4719C156.125 18.4639 156.429 19.5839 156.429 20.8319V27.9359C156.429 29.1519 156.125 30.2719 155.517 31.2959C154.909 32.2879 154.093 33.0879 153.069 33.6959C152.077 34.3039 150.973 34.6079 149.757 34.6079H128.541ZM168.246 34.6079C167.03 34.6079 165.91 34.3039 164.886 33.6959C163.894 33.0879 163.094 32.2879 162.486 31.2959C161.878 30.2719 161.574 29.1519 161.574 27.9359V6.71991C161.574 5.50391 161.878 4.39991 162.486 3.40791C163.094 2.38391 163.894 1.56791 164.886 0.959908C165.91 0.351909 167.03 0.0479088 168.246 0.0479088H189.462C190.678 0.0479088 191.782 0.351909 192.774 0.959908C193.798 1.56791 194.614 2.38391 195.222 3.40791C195.83 4.39991 196.134 5.50391 196.134 6.71991V27.9359C196.134 29.1519 195.83 30.2719 195.222 31.2959C194.614 32.2879 193.798 33.0879 192.774 33.6959C191.782 34.3039 190.678 34.6079 189.462 34.6079H168.246ZM168.486 28.2239H189.126C189.286 28.2239 189.43 28.1759 189.558 28.0799C189.686 27.9519 189.75 27.8079 189.75 27.6479V7.00791C189.75 6.84791 189.686 6.71991 189.558 6.62391C189.43 6.49591 189.286 6.43191 189.126 6.43191H168.486C168.326 6.43191 168.182 6.49591 168.054 6.62391C167.958 6.71991 167.91 6.84791 167.91 7.00791V27.6479C167.91 27.8079 167.958 27.9519 168.054 28.0799C168.182 28.1759 168.326 28.2239 168.486 28.2239ZM201.516 34.6079V0.0479088H233.34V6.43191H207.9V14.1119H228.348V20.5439H207.9V34.6079H201.516ZM235.435 34.6079V0.0479088H241.723V34.6079H235.435ZM261.717 34.6079V0.0479088H268.101V25.3919L289.461 0.0479088H296.325V1.82391L285.621 14.3519V25.3919L306.933 0.0479088H313.845V1.77591L286.197 34.6079H279.237V22.0319L268.677 34.6079H261.717ZM308.842 34.6079V32.9279L336.154 0.0479088H343.018V34.6079H336.682V25.8239H322.954L315.61 34.6079H308.842ZM328.234 19.5359H336.682V9.64791L328.234 19.5359ZM376.206 34.6079L365.79 22.1759H374.094L383.118 32.8319V34.6079H376.206ZM348.654 34.6079V0.0959082H376.494C377.71 0.0959082 378.83 0.399908 379.854 1.00791C380.878 1.61591 381.694 2.43191 382.302 3.45591C382.91 4.44791 383.214 5.55191 383.214 6.76791V16.0799C383.214 17.2959 382.91 18.4159 382.302 19.4399C381.694 20.4639 380.878 21.2799 379.854 21.8879C378.83 22.4639 377.71 22.7519 376.494 22.7519L354.99 22.7999V34.6079H348.654ZM355.566 16.3679H376.206C376.366 16.3679 376.51 16.3199 376.638 16.2239C376.766 16.1279 376.83 15.9999 376.83 15.8399V7.00791C376.83 6.84791 376.766 6.71991 376.638 6.62391C376.51 6.49591 376.366 6.43191 376.206 6.43191H355.566C355.406 6.43191 355.262 6.49591 355.134 6.62391C355.038 6.71991 354.99 6.84791 354.99 7.00791V15.8399C354.99 15.9999 355.038 16.1279 355.134 16.2239C355.262 16.3199 355.406 16.3679 355.566 16.3679ZM388.263 34.6079V0.0479088H395.223L416.439 25.2959V0.0479088H422.823V34.6079H415.863L394.599 9.31191V34.6079H388.263ZM425.561 34.6079V32.9279L452.873 0.0479088H459.737V34.6079H453.401V25.8239H439.673L432.329 34.6079H425.561ZM444.953 19.5359H453.401V9.64791L444.953 19.5359Z" fill="white"/>
</svg>
