<svg width="352" height="47" viewBox="0 0 352 47" fill="none" xmlns="http://www.w3.org/2000/svg">
<path d="M8.89602 46.144C7.27468 46.144 5.78135 45.7387 4.41602 44.928C3.09335 44.1174 2.02668 43.0507 1.21602 41.728C0.405349 40.3627 1.57356e-05 38.8694 1.57356e-05 37.248V8.96004C1.57356e-05 7.33871 0.405349 5.86671 1.21602 4.54404C2.02668 3.17871 3.09335 2.09071 4.41602 1.28004C5.78135 0.469374 7.27468 0.0640411 8.89602 0.0640411H37.12C38.7414 0.0640411 40.2347 0.469374 41.6 1.28004C42.9654 2.09071 44.0534 3.17871 44.864 4.54404C45.6747 5.86671 46.08 7.33871 46.08 8.96004V12.544H37.568V9.34404C37.568 9.13071 37.4827 8.96004 37.312 8.83204C37.1414 8.66138 36.9494 8.57604 36.736 8.57604H9.21602C9.00268 8.57604 8.81068 8.66138 8.64002 8.83204C8.51202 8.96004 8.44802 9.13071 8.44802 9.34404V36.864C8.44802 37.0774 8.51202 37.2694 8.64002 37.44C8.81068 37.568 9.00268 37.632 9.21602 37.632H36.736C36.9494 37.632 37.1414 37.568 37.312 37.44C37.4827 37.2694 37.568 37.0774 37.568 36.864V28.544H27.136V20.032H46.08V37.248C46.08 38.8694 45.6747 40.3627 44.864 41.728C44.0534 43.0507 42.9654 44.1174 41.6 44.928C40.2347 45.7387 38.7414 46.144 37.12 46.144H8.89602ZM49.605 46.144V43.904L86.021 0.0640411H95.173V46.144H86.725V34.432H68.421L58.629 46.144H49.605ZM75.461 26.048H86.725V12.864L75.461 26.048ZM102.752 46.144V4.19617e-05H111.2V37.632H148.832V46.144H102.752ZM152.627 46.144V4.19617e-05H161.075V37.632H198.707V46.144H152.627ZM202.566 46.144V0.0640411H244.998V8.57604H211.078V18.816H238.342V27.392H211.078V37.632H244.998V46.144H202.566ZM288.174 46.144L274.286 29.568H285.358L297.39 43.776V46.144H288.174ZM251.438 46.144V0.12804H288.558C290.179 0.12804 291.672 0.533374 293.038 1.34404C294.403 2.15471 295.491 3.24271 296.302 4.60804C297.112 5.93071 297.518 7.40271 297.518 9.02404V21.44C297.518 23.0614 297.112 24.5547 296.302 25.92C295.491 27.2854 294.403 28.3734 293.038 29.184C291.672 29.952 290.179 30.336 288.558 30.336L259.886 30.4V46.144H251.438ZM260.654 21.824H288.174C288.387 21.824 288.579 21.76 288.75 21.632C288.92 21.504 289.006 21.3334 289.006 21.12V9.34404C289.006 9.13071 288.92 8.96004 288.75 8.83204C288.579 8.66138 288.387 8.57604 288.174 8.57604H260.654C260.44 8.57604 260.248 8.66138 260.078 8.83204C259.95 8.96004 259.886 9.13071 259.886 9.34404V21.12C259.886 21.3334 259.95 21.504 260.078 21.632C260.248 21.76 260.44 21.824 260.654 21.824ZM322.17 46.144V28.864L300.922 0.0640411H310.906L326.458 19.584L341.818 0.0640411H351.994L330.682 28.928V46.144H322.17Z" fill="white"/>
</svg>
