<svg width="523" height="120" viewBox="0 0 523 120" fill="none" xmlns="http://www.w3.org/2000/svg">
<path d="M12.48 65C10.8587 65 9.36533 64.5947 8 63.784C6.67733 62.9733 5.61067 61.9067 4.8 60.584C3.98933 59.2187 3.584 57.7253 3.584 56.104V27.816C3.584 26.1947 3.98933 24.7227 4.8 23.4C5.61067 22.0347 6.67733 20.9467 8 20.136C9.36533 19.3253 10.8587 18.92 12.48 18.92H40.704C42.3253 18.92 43.8187 19.3253 45.184 20.136C46.5493 20.9467 47.6373 22.0347 48.448 23.4C49.2587 24.7227 49.664 26.1947 49.664 27.816V31.4H41.152V28.2C41.152 27.9867 41.0667 27.816 40.896 27.688C40.7253 27.5173 40.5333 27.432 40.32 27.432H12.8C12.5867 27.432 12.3947 27.5173 12.224 27.688C12.096 27.816 12.032 27.9867 12.032 28.2V55.72C12.032 55.9333 12.096 56.1253 12.224 56.296C12.3947 56.424 12.5867 56.488 12.8 56.488H40.32C40.5333 56.488 40.7253 56.424 40.896 56.296C41.0667 56.1253 41.152 55.9333 41.152 55.72V47.4H30.72V38.888H49.664V56.104C49.664 57.7253 49.2587 59.2187 48.448 60.584C47.6373 61.9067 46.5493 62.9733 45.184 63.784C43.8187 64.5947 42.3253 65 40.704 65H12.48ZM56.837 65V18.92H99.269V27.432H65.349V37.672H92.613V46.248H65.349V56.488H99.269V65H56.837ZM122.221 65V27.432H103.405V18.92H149.485V27.432H130.733V65H122.221ZM190.346 65V27.432H171.53V18.92H217.61V27.432H198.858V65H190.346ZM231.165 65C229.543 65 228.05 64.5947 226.685 63.784C225.362 62.9733 224.295 61.9067 223.485 60.584C222.674 59.2187 222.269 57.7253 222.269 56.104V27.816C222.269 26.1947 222.674 24.7227 223.485 23.4C224.295 22.0347 225.362 20.9467 226.685 20.136C228.05 19.3253 229.543 18.92 231.165 18.92H259.453C261.074 18.92 262.546 19.3253 263.869 20.136C265.234 20.9467 266.322 22.0347 267.133 23.4C267.943 24.7227 268.349 26.1947 268.349 27.816V56.104C268.349 57.7253 267.943 59.2187 267.133 60.584C266.322 61.9067 265.234 62.9733 263.869 63.784C262.546 64.5947 261.074 65 259.453 65H231.165ZM231.485 56.488H259.005C259.218 56.488 259.41 56.424 259.581 56.296C259.751 56.1253 259.837 55.9333 259.837 55.72V28.2C259.837 27.9867 259.751 27.816 259.581 27.688C259.41 27.5173 259.218 27.432 259.005 27.432H231.485C231.271 27.432 231.079 27.5173 230.909 27.688C230.781 27.816 230.717 27.9867 230.717 28.2V55.72C230.717 55.9333 230.781 56.1253 230.909 56.296C231.079 56.424 231.271 56.488 231.485 56.488ZM295.023 65V18.92H303.535V37.672H314.351L330.095 18.92H339.311V21.352L322.031 41.96L339.375 62.568V65H330.095L314.351 46.248H303.535V65H295.023ZM345.959 65V18.92H355.239L383.527 52.584V18.92H392.039V65H382.759L354.407 31.272V65H345.959ZM407.977 65C406.356 65 404.862 64.5947 403.497 63.784C402.174 62.9733 401.108 61.9067 400.297 60.584C399.486 59.2187 399.081 57.7253 399.081 56.104V27.816C399.081 26.1947 399.486 24.7227 400.297 23.4C401.108 22.0347 402.174 20.9467 403.497 20.136C404.862 19.3253 406.356 18.92 407.977 18.92H436.265C437.886 18.92 439.358 19.3253 440.681 20.136C442.046 20.9467 443.134 22.0347 443.945 23.4C444.756 24.7227 445.161 26.1947 445.161 27.816V56.104C445.161 57.7253 444.756 59.2187 443.945 60.584C443.134 61.9067 442.046 62.9733 440.681 63.784C439.358 64.5947 437.886 65 436.265 65H407.977ZM408.297 56.488H435.817C436.03 56.488 436.222 56.424 436.393 56.296C436.564 56.1253 436.649 55.9333 436.649 55.72V28.2C436.649 27.9867 436.564 27.816 436.393 27.688C436.222 27.5173 436.03 27.432 435.817 27.432H408.297C408.084 27.432 407.892 27.5173 407.721 27.688C407.593 27.816 407.529 27.9867 407.529 28.2V55.72C407.529 55.9333 407.593 56.1253 407.721 56.296C407.892 56.424 408.084 56.488 408.297 56.488ZM453.105 65V18.92H461.617V52.712L490.097 18.92H499.249V21.288L484.977 37.992V52.712L513.393 18.92H522.609V21.224L485.745 65H476.465V48.232L462.385 65H453.105Z" fill="white"/>
<path d="M74.284 108V73.44H102.124C103.34 73.44 104.46 73.744 105.484 74.352C106.508 74.96 107.324 75.776 107.932 76.8C108.54 77.792 108.844 78.896 108.844 80.112V101.328C108.844 102.544 108.54 103.664 107.932 104.688C107.324 105.68 106.508 106.48 105.484 107.088C104.46 107.696 103.34 108 102.124 108H74.284ZM81.148 101.616H101.836C101.996 101.616 102.14 101.568 102.268 101.472C102.396 101.344 102.46 101.2 102.46 101.04V80.4C102.46 80.24 102.396 80.112 102.268 80.016C102.14 79.888 101.996 79.824 101.836 79.824H81.148C80.988 79.824 80.844 79.888 80.716 80.016C80.62 80.112 80.572 80.24 80.572 80.4V101.04C80.572 101.2 80.62 101.344 80.716 101.472C80.844 101.568 80.988 101.616 81.148 101.616ZM113.547 108V73.44H119.835V108H113.547ZM124.581 108V73.44H156.405V79.824H130.965V87.504H151.413V93.936H130.965V101.616H156.405V108H124.581ZM167.763 108C166.547 108 165.427 107.696 164.403 107.088C163.411 106.48 162.611 105.68 162.003 104.688C161.395 103.664 161.091 102.544 161.091 101.328V98.688H167.427V101.04C167.427 101.2 167.475 101.344 167.571 101.472C167.699 101.568 167.843 101.616 168.003 101.616H188.691C188.851 101.616 188.979 101.568 189.075 101.472C189.203 101.344 189.267 101.2 189.267 101.04V94.464C189.267 94.304 189.203 94.176 189.075 94.08C188.979 93.984 188.851 93.936 188.691 93.936H167.763C166.547 93.936 165.427 93.632 164.403 93.024C163.411 92.416 162.611 91.616 162.003 90.624C161.395 89.6 161.091 88.464 161.091 87.216V80.112C161.091 78.896 161.395 77.792 162.003 76.8C162.611 75.776 163.411 74.96 164.403 74.352C165.427 73.744 166.547 73.44 167.763 73.44H188.979C190.195 73.44 191.299 73.744 192.291 74.352C193.315 74.96 194.131 75.776 194.739 76.8C195.347 77.792 195.651 78.896 195.651 80.112V82.752H189.267V80.4C189.267 80.24 189.203 80.112 189.075 80.016C188.979 79.888 188.851 79.824 188.691 79.824H168.003C167.843 79.824 167.699 79.888 167.571 80.016C167.475 80.112 167.427 80.24 167.427 80.4V86.976C167.427 87.136 167.475 87.264 167.571 87.36C167.699 87.456 167.843 87.504 168.003 87.504H188.979C190.195 87.504 191.299 87.808 192.291 88.416C193.315 89.024 194.131 89.84 194.739 90.864C195.347 91.856 195.651 92.976 195.651 94.224V101.328C195.651 102.544 195.347 103.664 194.739 104.688C194.131 105.68 193.315 106.48 192.291 107.088C191.299 107.696 190.195 108 188.979 108H167.763ZM215.563 108V73.44H222.523L243.739 98.688V73.44H250.123V108H243.163L221.899 82.704V108H215.563ZM252.861 108V106.32L280.173 73.44H287.037V108H280.701V99.216H266.973L259.629 108H252.861ZM272.253 92.928H280.701V83.04L272.253 92.928ZM305.056 108V79.824H290.944V73.44H325.504V79.824H311.44V108H305.056ZM326.454 108V106.32L353.766 73.44H360.63V108H354.294V99.216H340.566L333.222 108H326.454ZM345.846 92.928H354.294V83.04L345.846 92.928ZM366.314 108V73.392H372.65V101.616H400.874V108H366.314ZM403 108V73.44H409.288V108H403ZM420.466 108C419.25 108 418.13 107.696 417.106 107.088C416.114 106.48 415.314 105.68 414.706 104.688C414.098 103.664 413.794 102.544 413.794 101.328V98.688H420.13V101.04C420.13 101.2 420.178 101.344 420.274 101.472C420.402 101.568 420.546 101.616 420.706 101.616H441.394C441.554 101.616 441.682 101.568 441.778 101.472C441.906 101.344 441.97 101.2 441.97 101.04V94.464C441.97 94.304 441.906 94.176 441.778 94.08C441.682 93.984 441.554 93.936 441.394 93.936H420.466C419.25 93.936 418.13 93.632 417.106 93.024C416.114 92.416 415.314 91.616 414.706 90.624C414.098 89.6 413.794 88.464 413.794 87.216V80.112C413.794 78.896 414.098 77.792 414.706 76.8C415.314 75.776 416.114 74.96 417.106 74.352C418.13 73.744 419.25 73.44 420.466 73.44H441.682C442.898 73.44 444.002 73.744 444.994 74.352C446.018 74.96 446.834 75.776 447.442 76.8C448.05 77.792 448.354 78.896 448.354 80.112V82.752H441.97V80.4C441.97 80.24 441.906 80.112 441.778 80.016C441.682 79.888 441.554 79.824 441.394 79.824H420.706C420.546 79.824 420.402 79.888 420.274 80.016C420.178 80.112 420.13 80.24 420.13 80.4V86.976C420.13 87.136 420.178 87.264 420.274 87.36C420.402 87.456 420.546 87.504 420.706 87.504H441.682C442.898 87.504 444.002 87.808 444.994 88.416C446.018 89.024 446.834 89.84 447.442 90.864C448.05 91.856 448.354 92.976 448.354 94.224V101.328C448.354 102.544 448.05 103.664 447.442 104.688C446.834 105.68 446.018 106.48 444.994 107.088C444.002 107.696 442.898 108 441.682 108H420.466Z" fill="white"/>
</svg>
