<svg width="506" height="120" viewBox="0 0 506 120" fill="none" xmlns="http://www.w3.org/2000/svg">
<path d="M3.712 65V18.92H40.832C42.4533 18.92 43.9467 19.3253 45.312 20.136C46.6773 20.9467 47.7653 22.0347 48.576 23.4C49.3867 24.7227 49.792 26.1947 49.792 27.816V56.104C49.792 57.7253 49.3867 59.2187 48.576 60.584C47.7653 61.9067 46.6773 62.9733 45.312 63.784C43.9467 64.5947 42.4533 65 40.832 65H3.712ZM12.864 56.488H40.448C40.6613 56.488 40.8533 56.424 41.024 56.296C41.1947 56.1253 41.28 55.9333 41.28 55.72V28.2C41.28 27.9867 41.1947 27.816 41.024 27.688C40.8533 27.5173 40.6613 27.432 40.448 27.432H12.864C12.6507 27.432 12.4587 27.5173 12.288 27.688C12.16 27.816 12.096 27.9867 12.096 28.2V55.72C12.096 55.9333 12.16 56.1253 12.288 56.296C12.4587 56.424 12.6507 56.488 12.864 56.488ZM56.063 65V18.92H64.447V65H56.063ZM70.7745 65V18.92H113.207V27.432H79.2865V37.672H106.551V46.248H79.2865V56.488H113.207V65H70.7745ZM128.351 65C126.729 65 125.236 64.5947 123.871 63.784C122.548 62.9733 121.481 61.9067 120.671 60.584C119.86 59.2187 119.455 57.7253 119.455 56.104V52.584H127.903V55.72C127.903 55.9333 127.967 56.1253 128.095 56.296C128.265 56.424 128.457 56.488 128.671 56.488H156.255C156.468 56.488 156.639 56.424 156.767 56.296C156.937 56.1253 157.023 55.9333 157.023 55.72V46.952C157.023 46.7387 156.937 46.568 156.767 46.44C156.639 46.312 156.468 46.248 156.255 46.248H128.351C126.729 46.248 125.236 45.8427 123.871 45.032C122.548 44.2213 121.481 43.1547 120.671 41.832C119.86 40.4667 119.455 38.952 119.455 37.288V27.816C119.455 26.1947 119.86 24.7227 120.671 23.4C121.481 22.0347 122.548 20.9467 123.871 20.136C125.236 19.3253 126.729 18.92 128.351 18.92H156.639C158.26 18.92 159.732 19.3253 161.055 20.136C162.42 20.9467 163.508 22.0347 164.319 23.4C165.129 24.7227 165.535 26.1947 165.535 27.816V31.336H157.023V28.2C157.023 27.9867 156.937 27.816 156.767 27.688C156.639 27.5173 156.468 27.432 156.255 27.432H128.671C128.457 27.432 128.265 27.5173 128.095 27.688C127.967 27.816 127.903 27.9867 127.903 28.2V36.968C127.903 37.1813 127.967 37.352 128.095 37.48C128.265 37.608 128.457 37.672 128.671 37.672H156.639C158.26 37.672 159.732 38.0773 161.055 38.888C162.42 39.6987 163.508 40.7867 164.319 42.152C165.129 43.4747 165.535 44.968 165.535 46.632V56.104C165.535 57.7253 165.129 59.2187 164.319 60.584C163.508 61.9067 162.42 62.9733 161.055 63.784C159.732 64.5947 158.26 65 156.639 65H128.351ZM192.084 65V18.92H201.364L229.652 52.584V18.92H238.164V65H228.884L200.532 31.272V65H192.084ZM241.814 65V62.76L278.23 18.92H287.382V65H278.934V53.288H260.63L250.838 65H241.814ZM267.67 44.904H278.934V31.72L267.67 44.904ZM311.409 65V27.432H292.593V18.92H338.673V27.432H319.921V65H311.409ZM339.939 65V62.76L376.355 18.92H385.507V65H377.059V53.288H358.755L348.963 65H339.939ZM365.795 44.904H377.059V31.72L365.795 44.904ZM393.086 65V18.856H401.534V56.488H439.166V65H393.086ZM442.001 65V18.92H450.385V65H442.001ZM465.288 65C463.667 65 462.173 64.5947 460.808 63.784C459.485 62.9733 458.419 61.9067 457.608 60.584C456.797 59.2187 456.392 57.7253 456.392 56.104V52.584H464.84V55.72C464.84 55.9333 464.904 56.1253 465.032 56.296C465.203 56.424 465.395 56.488 465.608 56.488H493.192C493.405 56.488 493.576 56.424 493.704 56.296C493.875 56.1253 493.96 55.9333 493.96 55.72V46.952C493.96 46.7387 493.875 46.568 493.704 46.44C493.576 46.312 493.405 46.248 493.192 46.248H465.288C463.667 46.248 462.173 45.8427 460.808 45.032C459.485 44.2213 458.419 43.1547 457.608 41.832C456.797 40.4667 456.392 38.952 456.392 37.288V27.816C456.392 26.1947 456.797 24.7227 457.608 23.4C458.419 22.0347 459.485 20.9467 460.808 20.136C462.173 19.3253 463.667 18.92 465.288 18.92H493.576C495.197 18.92 496.669 19.3253 497.992 20.136C499.357 20.9467 500.445 22.0347 501.256 23.4C502.067 24.7227 502.472 26.1947 502.472 27.816V31.336H493.96V28.2C493.96 27.9867 493.875 27.816 493.704 27.688C493.576 27.5173 493.405 27.432 493.192 27.432H465.608C465.395 27.432 465.203 27.5173 465.032 27.688C464.904 27.816 464.84 27.9867 464.84 28.2V36.968C464.84 37.1813 464.904 37.352 465.032 37.48C465.203 37.608 465.395 37.672 465.608 37.672H493.576C495.197 37.672 496.669 38.0773 497.992 38.888C499.357 39.6987 500.445 40.7867 501.256 42.152C502.067 43.4747 502.472 44.968 502.472 46.632V56.104C502.472 57.7253 502.067 59.2187 501.256 60.584C500.445 61.9067 499.357 62.9733 497.992 63.784C496.669 64.5947 495.197 65 493.576 65H465.288Z" fill="white"/>
<path d="M146.236 108V73.44H152.572V87.504H175.228V73.44H181.564V108H175.228V93.936H152.572V108H146.236ZM186.344 108V73.44H192.632V108H186.344ZM197.282 108V73.44H204.242L216.77 88.368L229.25 73.44H236.258V108H229.874V82.656L216.77 98.256L203.618 82.704V108H197.282ZM254.197 108V79.824H240.085V73.44H274.645V79.824H260.581V108H254.197ZM277.563 108V73.44H283.851V108H277.563ZM288.877 108V73.44H295.261V87.504H303.373L315.181 73.44H322.093V75.264L309.133 90.72L322.141 106.176V108H315.181L303.373 93.936H295.261V108H288.877ZM324.439 108V106.32L351.751 73.44H358.615V108H352.279V99.216H338.551L331.207 108H324.439ZM343.831 92.928H352.279V83.04L343.831 92.928Z" fill="white"/>
</svg>
