<svg width="371" height="95" viewBox="0 0 371 95" fill="none" xmlns="http://www.w3.org/2000/svg">
<path d="M-0.00011313 34.5601V5.72205e-05H6.28789V34.5601H-0.00011313ZM10.9375 34.5601V5.72205e-05H17.8975L39.1135 25.2481V5.72205e-05H45.4975V34.5601H38.5375L17.2735 9.26406V34.5601H10.9375ZM63.259 34.5601V6.38406H49.147V5.72205e-05H83.707V6.38406H69.643V34.5601H63.259ZM114.849 34.5601L104.433 22.1281H112.737L121.761 32.7841V34.5601H114.849ZM87.2969 34.5601V0.0480566H115.137C116.353 0.0480566 117.473 0.352057 118.497 0.960056C119.521 1.56806 120.337 2.38406 120.945 3.40806C121.553 4.40006 121.857 5.50406 121.857 6.72006V16.0321C121.857 17.2481 121.553 18.3681 120.945 19.3921C120.337 20.4161 119.521 21.2321 118.497 21.8401C117.473 22.4161 116.353 22.7041 115.137 22.7041L93.6329 22.7521V34.5601H87.2969ZM94.2089 16.3201H114.849C115.009 16.3201 115.153 16.2721 115.281 16.1761C115.409 16.0801 115.473 15.9521 115.473 15.7921V6.96006C115.473 6.80006 115.409 6.67206 115.281 6.57606C115.153 6.44806 115.009 6.38406 114.849 6.38406H94.2089C94.0489 6.38406 93.9049 6.44806 93.7769 6.57606C93.6809 6.67206 93.6329 6.80006 93.6329 6.96006V15.7921C93.6329 15.9521 93.6809 16.0801 93.7769 16.1761C93.9049 16.2721 94.0489 16.3201 94.2089 16.3201ZM133.482 34.5601C132.266 34.5601 131.146 34.2561 130.122 33.6481C129.13 33.0401 128.33 32.2401 127.722 31.2481C127.114 30.2241 126.81 29.1041 126.81 27.8881V6.67206C126.81 5.45606 127.114 4.35206 127.722 3.36006C128.33 2.33606 129.13 1.52006 130.122 0.912057C131.146 0.304057 132.266 5.72205e-05 133.482 5.72205e-05H154.698C155.914 5.72205e-05 157.018 0.304057 158.01 0.912057C159.034 1.52006 159.85 2.33606 160.458 3.36006C161.066 4.35206 161.37 5.45606 161.37 6.67206V27.8881C161.37 29.1041 161.066 30.2241 160.458 31.2481C159.85 32.2401 159.034 33.0401 158.01 33.6481C157.018 34.2561 155.914 34.5601 154.698 34.5601H133.482ZM133.722 28.1761H154.362C154.522 28.1761 154.666 28.1281 154.794 28.0321C154.922 27.9041 154.986 27.7601 154.986 27.6001V6.96006C154.986 6.80006 154.922 6.67206 154.794 6.57606C154.666 6.44806 154.522 6.38406 154.362 6.38406H133.722C133.562 6.38406 133.418 6.44806 133.29 6.57606C133.194 6.67206 133.146 6.80006 133.146 6.96006V27.6001C133.146 27.7601 133.194 27.9041 133.29 28.0321C133.418 28.1281 133.562 28.1761 133.722 28.1761ZM166.752 34.5601V5.72205e-05H194.592C195.808 5.72205e-05 196.928 0.304057 197.952 0.912057C198.976 1.52006 199.792 2.33606 200.4 3.36006C201.008 4.35206 201.312 5.45606 201.312 6.67206V27.8881C201.312 29.1041 201.008 30.2241 200.4 31.2481C199.792 32.2401 198.976 33.0401 197.952 33.6481C196.928 34.2561 195.808 34.5601 194.592 34.5601H166.752ZM173.616 28.1761H194.304C194.464 28.1761 194.608 28.1281 194.736 28.0321C194.864 27.9041 194.928 27.7601 194.928 27.6001V6.96006C194.928 6.80006 194.864 6.67206 194.736 6.57606C194.608 6.44806 194.464 6.38406 194.304 6.38406H173.616C173.456 6.38406 173.312 6.44806 173.184 6.57606C173.088 6.67206 173.04 6.80006 173.04 6.96006V27.6001C173.04 27.7601 173.088 27.9041 173.184 28.0321C173.312 28.1281 173.456 28.1761 173.616 28.1761ZM213.264 34.5601C212.048 34.5601 210.928 34.2561 209.904 33.6481C208.912 33.0401 208.112 32.2401 207.504 31.2481C206.896 30.2241 206.592 29.1041 206.592 27.8881V5.72205e-05H212.928V27.6001C212.928 27.7601 212.976 27.9041 213.072 28.0321C213.2 28.1281 213.344 28.1761 213.504 28.1761H234.144C234.304 28.1761 234.448 28.1281 234.576 28.0321C234.704 27.9041 234.768 27.7601 234.768 27.6001V5.72205e-05H241.152V27.8881C241.152 29.1041 240.848 30.2241 240.24 31.2481C239.632 32.2401 238.816 33.0401 237.792 33.6481C236.8 34.2561 235.696 34.5601 234.48 34.5601H213.264ZM253.11 34.5601C251.894 34.5601 250.774 34.2561 249.75 33.6481C248.758 33.0401 247.958 32.2401 247.35 31.2481C246.742 30.2241 246.438 29.1041 246.438 27.8881V6.67206C246.438 5.45606 246.742 4.35206 247.35 3.36006C247.958 2.33606 248.758 1.52006 249.75 0.912057C250.774 0.304057 251.894 5.72205e-05 253.11 5.72205e-05H280.902V6.38406H254.454C253.942 6.38406 253.526 6.52806 253.206 6.81606C252.918 7.10406 252.774 7.52006 252.774 8.06406V26.4961C252.774 27.0081 252.918 27.4241 253.206 27.7441C253.526 28.0321 253.942 28.1761 254.454 28.1761H280.902V34.5601H253.11ZM285.234 34.5601V5.72205e-05H291.522V34.5601H285.234ZM296.172 34.5601V5.72205e-05H303.132L324.348 25.2481V5.72205e-05H330.732V34.5601H323.772L302.508 9.26406V34.5601H296.172ZM342.781 34.5601C341.565 34.5601 340.445 34.2561 339.421 33.6481C338.429 33.0401 337.629 32.2401 337.021 31.2481C336.413 30.2241 336.109 29.1041 336.109 27.8881V6.67206C336.109 5.45606 336.413 4.35206 337.021 3.36006C337.629 2.33606 338.429 1.52006 339.421 0.912057C340.445 0.304057 341.565 5.72205e-05 342.781 5.72205e-05H363.949C365.165 5.72205e-05 366.285 0.304057 367.309 0.912057C368.333 1.52006 369.149 2.33606 369.757 3.36006C370.365 4.35206 370.669 5.45606 370.669 6.67206V9.36006H364.285V6.96006C364.285 6.80006 364.221 6.67206 364.093 6.57606C363.965 6.44806 363.821 6.38406 363.661 6.38406H343.021C342.861 6.38406 342.717 6.44806 342.589 6.57606C342.493 6.67206 342.445 6.80006 342.445 6.96006V27.6001C342.445 27.7601 342.493 27.9041 342.589 28.0321C342.717 28.1281 342.861 28.1761 343.021 28.1761H363.661C363.821 28.1761 363.965 28.1281 364.093 28.0321C364.221 27.9041 364.285 27.7601 364.285 27.6001V21.3601H356.461V14.9761H370.669V27.8881C370.669 29.1041 370.365 30.2241 369.757 31.2481C369.149 32.2401 368.333 33.0401 367.309 33.6481C366.285 34.2561 365.165 34.5601 363.949 34.5601H342.781ZM49.6229 94.5601C48.4069 94.5601 47.2869 94.2561 46.2629 93.6481C45.2709 93.0401 44.4709 92.2401 43.8629 91.2481C43.2549 90.2241 42.9509 89.1041 42.9509 87.8881V66.6721C42.9509 65.4561 43.2549 64.3521 43.8629 63.3601C44.4709 62.3361 45.2709 61.5201 46.2629 60.9121C47.2869 60.3041 48.4069 60.0001 49.6229 60.0001H70.8389C72.0549 60.0001 73.1589 60.3041 74.1509 60.9121C75.1749 61.5201 75.9909 62.3361 76.5989 63.3601C77.2069 64.3521 77.5109 65.4561 77.5109 66.6721V87.8881C77.5109 89.1041 77.2069 90.2241 76.5989 91.2481C75.9909 92.2401 75.1749 93.0401 74.1509 93.6481C73.1589 94.2561 72.0549 94.5601 70.8389 94.5601H49.6229ZM49.8629 88.1761H70.5029C70.6629 88.1761 70.8069 88.1281 70.9349 88.0321C71.0629 87.9041 71.1269 87.7601 71.1269 87.6001V66.9601C71.1269 66.8001 71.0629 66.6721 70.9349 66.5761C70.8069 66.4481 70.6629 66.3841 70.5029 66.3841H49.8629C49.7029 66.3841 49.5589 66.4481 49.4309 66.5761C49.3349 66.6721 49.2869 66.8001 49.2869 66.9601V87.6001C49.2869 87.7601 49.3349 87.9041 49.4309 88.0321C49.5589 88.1281 49.7029 88.1761 49.8629 88.1761ZM89.3729 94.5601C88.1569 94.5601 87.0369 94.2561 86.0129 93.6481C85.0209 93.0401 84.2209 92.2401 83.6129 91.2481C83.0049 90.2241 82.7009 89.1041 82.7009 87.8881V60.0001H89.0369V87.6001C89.0369 87.7601 89.0849 87.9041 89.1809 88.0321C89.3089 88.1281 89.4529 88.1761 89.6129 88.1761H110.253C110.413 88.1761 110.557 88.1281 110.685 88.0321C110.813 87.9041 110.877 87.7601 110.877 87.6001V60.0001H117.261V87.8881C117.261 89.1041 116.957 90.2241 116.349 91.2481C115.741 92.2401 114.925 93.0401 113.901 93.6481C112.909 94.2561 111.805 94.5601 110.589 94.5601H89.3729ZM150.099 94.5601L139.683 82.1281H147.987L157.011 92.7841V94.5601H150.099ZM122.547 94.5601V60.0481H150.387C151.603 60.0481 152.723 60.3521 153.747 60.9601C154.771 61.5681 155.587 62.3841 156.195 63.4081C156.803 64.4001 157.107 65.5041 157.107 66.7201V76.0321C157.107 77.2481 156.803 78.3681 156.195 79.3921C155.587 80.4161 154.771 81.2321 153.747 81.8401C152.723 82.4161 151.603 82.7041 150.387 82.7041L128.883 82.7521V94.5601H122.547ZM129.459 76.3201H150.099C150.259 76.3201 150.403 76.2721 150.531 76.1761C150.659 76.0801 150.723 75.9521 150.723 75.7921V66.9601C150.723 66.8001 150.659 66.6721 150.531 66.5761C150.403 66.4481 150.259 66.3841 150.099 66.3841H129.459C129.299 66.3841 129.155 66.4481 129.027 66.5761C128.931 66.6721 128.883 66.8001 128.883 66.9601V75.7921C128.883 75.9521 128.931 76.0801 129.027 76.1761C129.155 76.2721 129.299 76.3201 129.459 76.3201ZM176.876 94.5601V59.9521H183.212V88.1761H211.436V94.5601H176.876ZM220.81 94.5601C219.594 94.5601 218.474 94.2561 217.45 93.6481C216.458 93.0401 215.658 92.2401 215.05 91.2481C214.442 90.2241 214.138 89.1041 214.138 87.8881V66.6721C214.138 65.4561 214.442 64.3521 215.05 63.3601C215.658 62.3361 216.458 61.5201 217.45 60.9121C218.474 60.3041 219.594 60.0001 220.81 60.0001H242.026C243.242 60.0001 244.346 60.3041 245.338 60.9121C246.362 61.5201 247.178 62.3361 247.786 63.3601C248.394 64.3521 248.698 65.4561 248.698 66.6721V87.8881C248.698 89.1041 248.394 90.2241 247.786 91.2481C247.178 92.2401 246.362 93.0401 245.338 93.6481C244.346 94.2561 243.242 94.5601 242.026 94.5601H220.81ZM221.05 88.1761H241.69C241.85 88.1761 241.994 88.1281 242.122 88.0321C242.25 87.9041 242.314 87.7601 242.314 87.6001V66.9601C242.314 66.8001 242.25 66.6721 242.122 66.5761C241.994 66.4481 241.85 66.3841 241.69 66.3841H221.05C220.89 66.3841 220.746 66.4481 220.618 66.5761C220.522 66.6721 220.474 66.8001 220.474 66.9601V87.6001C220.474 87.7601 220.522 87.9041 220.618 88.0321C220.746 88.1281 220.89 88.1761 221.05 88.1761ZM260.656 94.5601C259.44 94.5601 258.32 94.2561 257.296 93.6481C256.304 93.0401 255.504 92.2401 254.896 91.2481C254.288 90.2241 253.984 89.1041 253.984 87.8881V66.6721C253.984 65.4561 254.288 64.3521 254.896 63.3601C255.504 62.3361 256.304 61.5201 257.296 60.9121C258.32 60.3041 259.44 60.0001 260.656 60.0001H281.824C283.04 60.0001 284.16 60.3041 285.184 60.9121C286.208 61.5201 287.024 62.3361 287.632 63.3601C288.24 64.3521 288.544 65.4561 288.544 66.6721V69.3601H282.16V66.9601C282.16 66.8001 282.096 66.6721 281.968 66.5761C281.84 66.4481 281.696 66.3841 281.536 66.3841H260.896C260.736 66.3841 260.592 66.4481 260.464 66.5761C260.368 66.6721 260.32 66.8001 260.32 66.9601V87.6001C260.32 87.7601 260.368 87.9041 260.464 88.0321C260.592 88.1281 260.736 88.1761 260.896 88.1761H281.536C281.696 88.1761 281.84 88.1281 281.968 88.0321C282.096 87.9041 282.16 87.7601 282.16 87.6001V81.3601H274.336V74.9761H288.544V87.8881C288.544 89.1041 288.24 90.2241 287.632 91.2481C287.024 92.2401 286.208 93.0401 285.184 93.6481C284.16 94.2561 283.04 94.5601 281.824 94.5601H260.656ZM300.404 94.5601C299.188 94.5601 298.068 94.2561 297.044 93.6481C296.052 93.0401 295.252 92.2401 294.644 91.2481C294.036 90.2241 293.732 89.1041 293.732 87.8881V66.6721C293.732 65.4561 294.036 64.3521 294.644 63.3601C295.252 62.3361 296.052 61.5201 297.044 60.9121C298.068 60.3041 299.188 60.0001 300.404 60.0001H321.62C322.836 60.0001 323.94 60.3041 324.932 60.9121C325.956 61.5201 326.772 62.3361 327.38 63.3601C327.988 64.3521 328.292 65.4561 328.292 66.6721V87.8881C328.292 89.1041 327.988 90.2241 327.38 91.2481C326.772 92.2401 325.956 93.0401 324.932 93.6481C323.94 94.2561 322.836 94.5601 321.62 94.5601H300.404ZM300.644 88.1761H321.284C321.444 88.1761 321.588 88.1281 321.716 88.0321C321.844 87.9041 321.908 87.7601 321.908 87.6001V66.9601C321.908 66.8001 321.844 66.6721 321.716 66.5761C321.588 66.4481 321.444 66.3841 321.284 66.3841H300.644C300.484 66.3841 300.34 66.4481 300.212 66.5761C300.116 66.6721 300.068 66.8001 300.068 66.9601V87.6001C300.068 87.7601 300.116 87.9041 300.212 88.0321C300.34 88.1281 300.484 88.1761 300.644 88.1761Z" fill="white"/>
</svg>
