<svg width="366" height="95" viewBox="0 0 366 95" fill="none" xmlns="http://www.w3.org/2000/svg">
<path d="M-2.2769e-05 34.5601V5.72205e-05H6.38398V14.0641H14.496L26.304 5.72205e-05H33.216V1.82406L20.256 17.2801L33.264 32.7361V34.5601H26.304L14.496 20.4961H6.38398V34.5601H-2.2769e-05ZM38.298 34.5601V5.72205e-05H70.122V6.38406H44.682V14.0641H65.13V20.4961H44.682V28.1761H70.122V34.5601H38.298ZM87.336 34.5601V6.38406H73.224V5.72205e-05H107.784V6.38406H93.72V34.5601H87.336ZM117.95 34.5601C116.734 34.5601 115.614 34.2561 114.59 33.6481C113.598 33.0401 112.798 32.2401 112.19 31.2481C111.582 30.2241 111.278 29.1041 111.278 27.8881V5.72205e-05H117.614V27.6001C117.614 27.7601 117.662 27.9041 117.758 28.0321C117.886 28.1281 118.03 28.1761 118.19 28.1761H138.83C138.99 28.1761 139.134 28.1281 139.262 28.0321C139.39 27.9041 139.454 27.7601 139.454 27.6001V5.72205e-05H145.838V27.8881C145.838 29.1041 145.534 30.2241 144.926 31.2481C144.318 32.2401 143.502 33.0401 142.478 33.6481C141.486 34.2561 140.382 34.5601 139.166 34.5601H117.95ZM148.484 34.5601V32.8801L175.796 5.72205e-05H182.66V34.5601H176.324V25.7761H162.596L155.252 34.5601H148.484ZM167.876 19.4881H176.324V9.60006L167.876 19.4881ZM209.544 34.5601C208.328 34.5601 207.208 34.2561 206.184 33.6481C205.192 33.0401 204.392 32.2401 203.784 31.2481C203.176 30.2241 202.872 29.1041 202.872 27.8881V5.72205e-05H209.208V27.6001C209.208 27.7601 209.256 27.9041 209.352 28.0321C209.48 28.1281 209.624 28.1761 209.784 28.1761H230.424C230.584 28.1761 230.728 28.1281 230.856 28.0321C230.984 27.9041 231.048 27.7601 231.048 27.6001V5.72205e-05H237.432V27.8881C237.432 29.1041 237.128 30.2241 236.52 31.2481C235.912 32.2401 235.096 33.0401 234.072 33.6481C233.08 34.2561 231.976 34.5601 230.76 34.5601H209.544ZM242.718 34.5601V5.72205e-05H249.678L262.206 14.9281L274.686 5.72205e-05H281.694V34.5601H275.31V9.21606L262.206 24.8161L249.054 9.26406V34.5601H242.718ZM293.825 34.5601C292.609 34.5601 291.489 34.2561 290.465 33.6481C289.473 33.0401 288.673 32.2401 288.065 31.2481C287.457 30.2241 287.153 29.1041 287.153 27.8881V5.72205e-05H293.489V27.6001C293.489 27.7601 293.537 27.9041 293.633 28.0321C293.761 28.1281 293.905 28.1761 294.065 28.1761H314.705C314.865 28.1761 315.009 28.1281 315.137 28.0321C315.265 27.9041 315.329 27.7601 315.329 27.6001V5.72205e-05H321.713V27.8881C321.713 29.1041 321.409 30.2241 320.801 31.2481C320.193 32.2401 319.377 33.0401 318.353 33.6481C317.361 34.2561 316.257 34.5601 315.041 34.5601H293.825ZM326.999 34.5601V5.72205e-05H333.959L346.487 14.9281L358.967 5.72205e-05H365.975V34.5601H359.591V9.21606L346.487 24.8161L333.335 9.26406V34.5601H326.999ZM75.1406 94.5601V60.0001H81.4766V74.0641H104.133V60.0001H110.469V94.5601H104.133V80.4961H81.4766V94.5601H75.1406ZM115.249 94.5601V60.0001H121.537V94.5601H115.249ZM126.186 94.5601V60.0001H133.146L145.674 74.9281L158.154 60.0001H165.162V94.5601H158.778V69.2161L145.674 84.8161L132.522 69.2641V94.5601H126.186ZM177.246 94.5601C176.03 94.5601 174.91 94.2561 173.886 93.6481C172.894 93.0401 172.094 92.2401 171.486 91.2481C170.878 90.2241 170.574 89.1041 170.574 87.8881V85.2481H176.91V87.6001C176.91 87.7601 176.958 87.9041 177.054 88.0321C177.182 88.1281 177.326 88.1761 177.486 88.1761H198.174C198.334 88.1761 198.462 88.1281 198.558 88.0321C198.686 87.9041 198.75 87.7601 198.75 87.6001V81.0241C198.75 80.8641 198.686 80.7361 198.558 80.6401C198.462 80.5441 198.334 80.4961 198.174 80.4961H177.246C176.03 80.4961 174.91 80.1921 173.886 79.5841C172.894 78.9761 172.094 78.1761 171.486 77.1841C170.878 76.1601 170.574 75.0241 170.574 73.7761V66.6721C170.574 65.4561 170.878 64.3521 171.486 63.3601C172.094 62.3361 172.894 61.5201 173.886 60.9121C174.91 60.3041 176.03 60.0001 177.246 60.0001H198.462C199.678 60.0001 200.782 60.3041 201.774 60.9121C202.798 61.5201 203.614 62.3361 204.222 63.3601C204.83 64.3521 205.134 65.4561 205.134 66.6721V69.3121H198.75V66.9601C198.75 66.8001 198.686 66.6721 198.558 66.5761C198.462 66.4481 198.334 66.3841 198.174 66.3841H177.486C177.326 66.3841 177.182 66.4481 177.054 66.5761C176.958 66.6721 176.91 66.8001 176.91 66.9601V73.5361C176.91 73.6961 176.958 73.8241 177.054 73.9201C177.182 74.0161 177.326 74.0641 177.486 74.0641H198.462C199.678 74.0641 200.782 74.3681 201.774 74.9761C202.798 75.5841 203.614 76.4001 204.222 77.4241C204.83 78.4161 205.134 79.5361 205.134 80.7841V87.8881C205.134 89.1041 204.83 90.2241 204.222 91.2481C203.614 92.2401 202.798 93.0401 201.774 93.6481C200.782 94.2561 199.678 94.5601 198.462 94.5601H177.246ZM209.702 94.5601V60.0001H215.99V94.5601H209.702ZM221.016 94.5601V60.0001H227.4V74.0641H235.512L247.32 60.0001H254.232V61.8241L241.272 77.2801L254.28 92.7361V94.5601H247.32L235.512 80.4961H227.4V94.5601H221.016ZM256.578 94.5601V92.8801L283.89 60.0001H290.754V94.5601H284.418V85.7761H270.69L263.346 94.5601H256.578ZM275.97 79.4881H284.418V69.6001L275.97 79.4881Z" fill="white"/>
</svg>
