<svg width="366" height="95" viewBox="0 0 366 95" fill="none" xmlns="http://www.w3.org/2000/svg">
<path d="M-8.38041e-05 34.5601V5.72205e-05H6.38392V14.0641H14.4959L26.3039 5.72205e-05H33.2159V1.82406L20.2559 17.2801L33.2639 32.7361V34.5601H26.3039L14.4959 20.4961H6.38392V34.5601H-8.38041e-05ZM38.2979 34.5601V5.72205e-05H70.1219V6.38406H44.6819V14.0641H65.1299V20.4961H44.6819V28.1761H70.1219V34.5601H38.2979ZM87.3359 34.5601V6.38406H73.2239V5.72205e-05H107.784V6.38406H93.7199V34.5601H87.3359ZM117.95 34.5601C116.734 34.5601 115.614 34.2561 114.59 33.6481C113.598 33.0401 112.798 32.2401 112.19 31.2481C111.582 30.2241 111.278 29.1041 111.278 27.8881V5.72205e-05H117.614V27.6001C117.614 27.7601 117.662 27.9041 117.758 28.0321C117.886 28.1281 118.03 28.1761 118.19 28.1761H138.83C138.99 28.1761 139.134 28.1281 139.262 28.0321C139.39 27.9041 139.454 27.7601 139.454 27.6001V5.72205e-05H145.838V27.8881C145.838 29.1041 145.534 30.2241 144.926 31.2481C144.318 32.2401 143.502 33.0401 142.478 33.6481C141.486 34.2561 140.382 34.5601 139.166 34.5601H117.95ZM148.484 34.5601V32.8801L175.796 5.72205e-05H182.66V34.5601H176.324V25.7761H162.596L155.252 34.5601H148.484ZM167.876 19.4881H176.324V9.60006L167.876 19.4881ZM209.544 34.5601C208.328 34.5601 207.208 34.2561 206.184 33.6481C205.192 33.0401 204.392 32.2401 203.784 31.2481C203.176 30.2241 202.872 29.1041 202.872 27.8881V5.72205e-05H209.208V27.6001C209.208 27.7601 209.256 27.9041 209.352 28.0321C209.48 28.1281 209.624 28.1761 209.784 28.1761H230.424C230.584 28.1761 230.728 28.1281 230.856 28.0321C230.984 27.9041 231.048 27.7601 231.048 27.6001V5.72205e-05H237.432V27.8881C237.432 29.1041 237.128 30.2241 236.52 31.2481C235.912 32.2401 235.096 33.0401 234.072 33.6481C233.08 34.2561 231.976 34.5601 230.76 34.5601H209.544ZM242.718 34.5601V5.72205e-05H249.678L262.206 14.9281L274.686 5.72205e-05H281.694V34.5601H275.31V9.21606L262.206 24.8161L249.054 9.26406V34.5601H242.718ZM293.825 34.5601C292.609 34.5601 291.489 34.2561 290.465 33.6481C289.473 33.0401 288.673 32.2401 288.065 31.2481C287.457 30.2241 287.153 29.1041 287.153 27.8881V5.72205e-05H293.489V27.6001C293.489 27.7601 293.537 27.9041 293.633 28.0321C293.761 28.1281 293.905 28.1761 294.065 28.1761H314.705C314.865 28.1761 315.009 28.1281 315.137 28.0321C315.265 27.9041 315.329 27.7601 315.329 27.6001V5.72205e-05H321.713V27.8881C321.713 29.1041 321.409 30.2241 320.801 31.2481C320.193 32.2401 319.377 33.0401 318.353 33.6481C317.361 34.2561 316.257 34.5601 315.041 34.5601H293.825ZM326.999 34.5601V5.72205e-05H333.959L346.487 14.9281L358.967 5.72205e-05H365.975V34.5601H359.591V9.21606L346.487 24.8161L333.335 9.26406V34.5601H326.999ZM76.7577 94.5601V60.0001H83.0937V74.0641H105.75V60.0001H112.086V94.5601H105.75V80.4961H83.0937V94.5601H76.7577ZM116.866 94.5601V60.0001H123.154V94.5601H116.866ZM127.803 94.5601V60.0001H134.763L147.291 74.9281L159.771 60.0001H166.779V94.5601H160.395V69.2161L147.291 84.8161L134.139 69.2641V94.5601H127.803ZM184.719 94.5601V66.3841H170.607V60.0001H205.167V66.3841H191.103V94.5601H184.719ZM208.085 94.5601V60.0001H214.373V94.5601H208.085ZM219.398 94.5601V60.0001H225.782V74.0641H233.894L245.702 60.0001H252.614V61.8241L239.654 77.2801L252.662 92.7361V94.5601H245.702L233.894 80.4961H225.782V94.5601H219.398ZM254.96 94.5601V92.8801L282.272 60.0001H289.136V94.5601H282.8V85.7761H269.072L261.728 94.5601H254.96ZM274.352 79.4881H282.8V69.6001L274.352 79.4881Z" fill="white"/>
</svg>
