<svg width="364" height="95" viewBox="0 0 364 95" fill="none" xmlns="http://www.w3.org/2000/svg">
<path d="M63.3918 34.5601V5.72205e-05H69.7758V14.0641H77.8878L89.6958 5.72205e-05H96.6078V1.82406L83.6478 17.2801L96.6558 32.7361V34.5601H89.6958L77.8878 20.4961H69.7758V34.5601H63.3918ZM98.9538 34.5601V32.8801L126.266 5.72205e-05H133.13V34.5601H126.794V25.7761H113.066L105.722 34.5601H98.9538ZM118.346 19.4881H126.794V9.60006L118.346 19.4881ZM138.766 34.5601V0.0480566H166.606C167.822 0.0480566 168.942 0.352057 169.966 0.960056C170.99 1.56806 171.806 2.38406 172.414 3.40806C173.022 4.40006 173.326 5.50406 173.326 6.72006V16.0321C173.326 17.2481 173.022 18.3681 172.414 19.3921C171.806 20.4161 170.99 21.2321 169.966 21.8401C168.942 22.4161 167.822 22.7041 166.606 22.7041L145.102 22.7521V34.5601H138.766ZM145.678 16.3201H166.318C166.478 16.3201 166.622 16.2721 166.75 16.1761C166.878 16.0801 166.942 15.9521 166.942 15.7921V6.96006C166.942 6.80006 166.878 6.67206 166.75 6.57606C166.622 6.44806 166.478 6.38406 166.318 6.38406H145.678C145.518 6.38406 145.374 6.44806 145.246 6.57606C145.15 6.67206 145.102 6.80006 145.102 6.96006V15.7921C145.102 15.9521 145.15 16.0801 145.246 16.1761C145.374 16.2721 145.518 16.3201 145.678 16.3201ZM204.286 34.5601L193.87 22.1281H202.174L211.198 32.7841V34.5601H204.286ZM176.734 34.5601V0.0480566H204.574C205.79 0.0480566 206.91 0.352057 207.934 0.960056C208.958 1.56806 209.774 2.38406 210.382 3.40806C210.99 4.40006 211.294 5.50406 211.294 6.72006V16.0321C211.294 17.2481 210.99 18.3681 210.382 19.3921C209.774 20.4161 208.958 21.2321 207.934 21.8401C206.91 22.4161 205.79 22.7041 204.574 22.7041L183.07 22.7521V34.5601H176.734ZM183.646 16.3201H204.286C204.446 16.3201 204.59 16.2721 204.718 16.1761C204.846 16.0801 204.91 15.9521 204.91 15.7921V6.96006C204.91 6.80006 204.846 6.67206 204.718 6.57606C204.59 6.44806 204.446 6.38406 204.286 6.38406H183.646C183.486 6.38406 183.342 6.44806 183.214 6.57606C183.118 6.67206 183.07 6.80006 183.07 6.96006V15.7921C183.07 15.9521 183.118 16.0801 183.214 16.1761C183.342 16.2721 183.486 16.3201 183.646 16.3201ZM222.92 34.5601C221.704 34.5601 220.584 34.2561 219.56 33.6481C218.568 33.0401 217.768 32.2401 217.16 31.2481C216.552 30.2241 216.248 29.1041 216.248 27.8881V6.67206C216.248 5.45606 216.552 4.35206 217.16 3.36006C217.768 2.33606 218.568 1.52006 219.56 0.912057C220.584 0.304057 221.704 5.72205e-05 222.92 5.72205e-05H244.136C245.352 5.72205e-05 246.456 0.304057 247.448 0.912057C248.472 1.52006 249.288 2.33606 249.896 3.36006C250.504 4.35206 250.808 5.45606 250.808 6.67206V27.8881C250.808 29.1041 250.504 30.2241 249.896 31.2481C249.288 32.2401 248.472 33.0401 247.448 33.6481C246.456 34.2561 245.352 34.5601 244.136 34.5601H222.92ZM223.16 28.1761H243.8C243.96 28.1761 244.104 28.1281 244.232 28.0321C244.36 27.9041 244.424 27.7601 244.424 27.6001V6.96006C244.424 6.80006 244.36 6.67206 244.232 6.57606C244.104 6.44806 243.96 6.38406 243.8 6.38406H223.16C223 6.38406 222.856 6.44806 222.728 6.57606C222.632 6.67206 222.584 6.80006 222.584 6.96006V27.6001C222.584 27.7601 222.632 27.9041 222.728 28.0321C222.856 28.1281 223 28.1761 223.16 28.1761ZM256.19 34.5601V5.72205e-05H284.03C285.246 5.72205e-05 286.366 0.304057 287.39 0.912057C288.414 1.52006 289.23 2.33606 289.838 3.36006C290.446 4.35206 290.75 5.45606 290.75 6.67206V27.8881C290.75 29.1041 290.446 30.2241 289.838 31.2481C289.23 32.2401 288.414 33.0401 287.39 33.6481C286.366 34.2561 285.246 34.5601 284.03 34.5601H256.19ZM263.054 28.1761H283.742C283.902 28.1761 284.046 28.1281 284.174 28.0321C284.302 27.9041 284.366 27.7601 284.366 27.6001V6.96006C284.366 6.80006 284.302 6.67206 284.174 6.57606C284.046 6.44806 283.902 6.38406 283.742 6.38406H263.054C262.894 6.38406 262.75 6.44806 262.622 6.57606C262.526 6.67206 262.478 6.80006 262.478 6.96006V27.6001C262.478 27.7601 262.526 27.9041 262.622 28.0321C262.75 28.1281 262.894 28.1761 263.054 28.1761ZM295.453 34.5601V5.72205e-05H301.741V34.5601H295.453ZM-0.00011313 94.5601V60.0001H6.28789V94.5601H-0.00011313ZM10.9375 94.5601V60.0001H17.8975L39.1135 85.2481V60.0001H45.4975V94.5601H38.5375L17.2735 69.2641V94.5601H10.9375ZM50.971 94.5601V60.0001H82.795V66.3841H57.355V74.0641H77.803V80.4961H57.355V94.5601H50.971ZM92.1385 94.5601C90.9225 94.5601 89.8025 94.2561 88.7785 93.6481C87.7865 93.0401 86.9865 92.2401 86.3785 91.2481C85.7705 90.2241 85.4665 89.1041 85.4665 87.8881V66.6721C85.4665 65.4561 85.7705 64.3521 86.3785 63.3601C86.9865 62.3361 87.7865 61.5201 88.7785 60.9121C89.8025 60.3041 90.9225 60.0001 92.1385 60.0001H113.355C114.571 60.0001 115.675 60.3041 116.667 60.9121C117.691 61.5201 118.507 62.3361 119.115 63.3601C119.723 64.3521 120.027 65.4561 120.027 66.6721V87.8881C120.027 89.1041 119.723 90.2241 119.115 91.2481C118.507 92.2401 117.691 93.0401 116.667 93.6481C115.675 94.2561 114.571 94.5601 113.355 94.5601H92.1385ZM92.3785 88.1761H113.019C113.179 88.1761 113.323 88.1281 113.451 88.0321C113.579 87.9041 113.643 87.7601 113.643 87.6001V66.9601C113.643 66.8001 113.579 66.6721 113.451 66.5761C113.323 66.4481 113.179 66.3841 113.019 66.3841H92.3785C92.2185 66.3841 92.0745 66.4481 91.9465 66.5761C91.8505 66.6721 91.8025 66.8001 91.8025 66.9601V87.6001C91.8025 87.7601 91.8505 87.9041 91.9465 88.0321C92.0745 88.1281 92.2185 88.1761 92.3785 88.1761ZM152.865 94.5601L142.449 82.1281H150.753L159.777 92.7841V94.5601H152.865ZM125.313 94.5601V60.0481H153.153C154.369 60.0481 155.489 60.3521 156.513 60.9601C157.537 61.5681 158.353 62.3841 158.961 63.4081C159.569 64.4001 159.873 65.5041 159.873 66.7201V76.0321C159.873 77.2481 159.569 78.3681 158.961 79.3921C158.353 80.4161 157.537 81.2321 156.513 81.8401C155.489 82.4161 154.369 82.7041 153.153 82.7041L131.649 82.7521V94.5601H125.313ZM132.225 76.3201H152.865C153.025 76.3201 153.169 76.2721 153.297 76.1761C153.425 76.0801 153.489 75.9521 153.489 75.7921V66.9601C153.489 66.8001 153.425 66.6721 153.297 66.5761C153.169 66.4481 153.025 66.3841 152.865 66.3841H132.225C132.065 66.3841 131.921 66.4481 131.793 66.5761C131.697 66.6721 131.649 66.8001 131.649 66.9601V75.7921C131.649 75.9521 131.697 76.0801 131.793 76.1761C131.921 76.2721 132.065 76.3201 132.225 76.3201ZM164.922 94.5601V60.0001H171.882L184.41 74.9281L196.89 60.0001H203.898V94.5601H197.514V69.2161L184.41 84.8161L171.258 69.2641V94.5601H164.922ZM206.813 94.5601V92.8801L234.125 60.0001H240.989V94.5601H234.653V85.7761H220.925L213.581 94.5601H206.813ZM226.205 79.4881H234.653V69.6001L226.205 79.4881ZM259.009 94.5601V66.3841H244.897V60.0001H279.457V66.3841H265.393V94.5601H259.009ZM282.375 94.5601V60.0001H288.663V94.5601H282.375ZM293.689 94.5601V60.0001H300.073V74.0641H308.185L319.993 60.0001H326.905V61.8241L313.945 77.2801L326.953 92.7361V94.5601H319.993L308.185 80.4961H300.073V94.5601H293.689ZM329.251 94.5601V92.8801L356.563 60.0001H363.427V94.5601H357.091V85.7761H343.363L336.019 94.5601H329.251ZM348.643 79.4881H357.091V69.6001L348.643 79.4881Z" fill="white"/>
</svg>
