<svg width="336" height="95" viewBox="0 0 336 95" fill="none" xmlns="http://www.w3.org/2000/svg">
<path d="M76.6183 34.5601V5.72205e-05H83.0023V14.0641H91.1143L102.922 5.72205e-05H109.834V1.82406L96.8743 17.2801L109.882 32.7361V34.5601H102.922L91.1143 20.4961H83.0023V34.5601H76.6183ZM114.916 34.5601V5.72205e-05H146.74V6.38406H121.3V14.0641H141.748V20.4961H121.3V28.1761H146.74V34.5601H114.916ZM163.954 34.5601V6.38406H149.842V5.72205e-05H184.402V6.38406H170.338V34.5601H163.954ZM194.568 34.5601C193.352 34.5601 192.232 34.2561 191.208 33.6481C190.216 33.0401 189.416 32.2401 188.808 31.2481C188.2 30.2241 187.896 29.1041 187.896 27.8881V5.72205e-05H194.232V27.6001C194.232 27.7601 194.28 27.9041 194.376 28.0321C194.504 28.1281 194.648 28.1761 194.808 28.1761H215.448C215.608 28.1761 215.752 28.1281 215.88 28.0321C216.008 27.9041 216.072 27.7601 216.072 27.6001V5.72205e-05H222.456V27.8881C222.456 29.1041 222.152 30.2241 221.544 31.2481C220.936 32.2401 220.12 33.0401 219.096 33.6481C218.104 34.2561 217 34.5601 215.784 34.5601H194.568ZM225.102 34.5601V32.8801L252.414 5.72205e-05H259.278V34.5601H252.942V25.7761H239.214L231.87 34.5601H225.102ZM244.494 19.4881H252.942V9.60006L244.494 19.4881ZM1.18017e-05 94.5601V60.0481H27.84C29.056 60.0481 30.176 60.3521 31.2 60.9601C32.224 61.5681 33.04 62.3841 33.648 63.4081C34.256 64.4001 34.56 65.5041 34.56 66.7201V76.0321C34.56 77.2481 34.256 78.3681 33.648 79.3921C33.04 80.4161 32.224 81.2321 31.2 81.8401C30.176 82.4161 29.056 82.7041 27.84 82.7041L6.33601 82.7521V94.5601H1.18017e-05ZM6.91201 76.3201H27.552C27.712 76.3201 27.856 76.2721 27.984 76.1761C28.112 76.0801 28.176 75.9521 28.176 75.7921V66.9601C28.176 66.8001 28.112 66.6721 27.984 66.5761C27.856 66.4481 27.712 66.3841 27.552 66.3841H6.91201C6.75201 66.3841 6.60801 66.4481 6.48001 66.5761C6.38401 66.6721 6.33601 66.8001 6.33601 66.9601V75.7921C6.33601 75.9521 6.38401 76.0801 6.48001 76.1761C6.60801 76.2721 6.75201 76.3201 6.91201 76.3201ZM38.0648 94.5601V60.0001H69.8888V66.3841H44.4488V74.0641H64.8968V80.4961H44.4488V88.1761H69.8888V94.5601H38.0648ZM74.7668 94.5601V59.9521H81.1028V88.1761H109.327V94.5601H74.7668ZM109.485 94.5601V92.8801L136.797 60.0001H143.661V94.5601H137.325V85.7761H123.597L116.253 94.5601H109.485ZM128.877 79.4881H137.325V69.6001L128.877 79.4881ZM149.345 94.5601V60.0001H155.729V74.0641H163.841L175.649 60.0001H182.561V61.8241L169.601 77.2801L182.609 92.7361V94.5601H175.649L163.841 80.4961H155.729V94.5601H149.345ZM194.075 94.5601C192.859 94.5601 191.739 94.2561 190.715 93.6481C189.723 93.0401 188.923 92.2401 188.315 91.2481C187.707 90.2241 187.403 89.1041 187.403 87.8881V85.2481H193.739V87.6001C193.739 87.7601 193.787 87.9041 193.883 88.0321C194.011 88.1281 194.155 88.1761 194.315 88.1761H215.003C215.163 88.1761 215.291 88.1281 215.387 88.0321C215.515 87.9041 215.579 87.7601 215.579 87.6001V81.0241C215.579 80.8641 215.515 80.7361 215.387 80.6401C215.291 80.5441 215.163 80.4961 215.003 80.4961H194.075C192.859 80.4961 191.739 80.1921 190.715 79.5841C189.723 78.9761 188.923 78.1761 188.315 77.1841C187.707 76.1601 187.403 75.0241 187.403 73.7761V66.6721C187.403 65.4561 187.707 64.3521 188.315 63.3601C188.923 62.3361 189.723 61.5201 190.715 60.9121C191.739 60.3041 192.859 60.0001 194.075 60.0001H215.291C216.507 60.0001 217.611 60.3041 218.603 60.9121C219.627 61.5201 220.443 62.3361 221.051 63.3601C221.659 64.3521 221.963 65.4561 221.963 66.6721V69.3121H215.579V66.9601C215.579 66.8001 215.515 66.6721 215.387 66.5761C215.291 66.4481 215.163 66.3841 215.003 66.3841H194.315C194.155 66.3841 194.011 66.4481 193.883 66.5761C193.787 66.6721 193.739 66.8001 193.739 66.9601V73.5361C193.739 73.6961 193.787 73.8241 193.883 73.9201C194.011 74.0161 194.155 74.0641 194.315 74.0641H215.291C216.507 74.0641 217.611 74.3681 218.603 74.9761C219.627 75.5841 220.443 76.4001 221.051 77.4241C221.659 78.4161 221.963 79.5361 221.963 80.7841V87.8881C221.963 89.1041 221.659 90.2241 221.051 91.2481C220.443 92.2401 219.627 93.0401 218.603 93.6481C217.611 94.2561 216.507 94.5601 215.291 94.5601H194.075ZM224.563 94.5601V92.8801L251.875 60.0001H258.739V94.5601H252.403V85.7761H238.675L231.331 94.5601H224.563ZM243.955 79.4881H252.403V69.6001L243.955 79.4881ZM264.375 94.5601V60.0001H271.335L292.551 85.2481V60.0001H298.935V94.5601H291.975L270.711 69.2641V94.5601H264.375ZM301.673 94.5601V92.8801L328.985 60.0001H335.849V94.5601H329.513V85.7761H315.785L308.441 94.5601H301.673ZM321.065 79.4881H329.513V69.6001L321.065 79.4881Z" fill="white"/>
</svg>
