<svg width="379" height="95" viewBox="0 0 379 95" fill="none" xmlns="http://www.w3.org/2000/svg">
<path d="M-0.000327945 34.6079V-9.05991e-05H6.33567V28.2239H34.5597V34.6079H-0.000327945ZM37.4539 34.6079V0.0479088H69.2779V6.43191H43.8379V14.1119H64.2859V20.5439H43.8379V28.2239H69.2779V34.6079H37.4539ZM86.4919 34.6079V6.43191H72.3799V0.0479088H106.94V6.43191H92.8759V34.6079H86.4919ZM110.434 12.7199V0.479909H116.722V6.09591C116.722 7.15191 116.45 8.14391 115.906 9.07191C115.362 9.99991 114.61 10.7839 113.65 11.4239C112.69 12.0639 111.618 12.4959 110.434 12.7199ZM127.417 34.6079C126.201 34.6079 125.081 34.3039 124.057 33.6959C123.065 33.0879 122.265 32.2879 121.657 31.2959C121.049 30.2719 120.745 29.1519 120.745 27.9359V25.2959H127.081V27.6479C127.081 27.8079 127.129 27.9519 127.225 28.0799C127.353 28.1759 127.497 28.2239 127.657 28.2239H148.345C148.505 28.2239 148.633 28.1759 148.729 28.0799C148.857 27.9519 148.921 27.8079 148.921 27.6479V21.0719C148.921 20.9119 148.857 20.7839 148.729 20.6879C148.633 20.5919 148.505 20.5439 148.345 20.5439H127.417C126.201 20.5439 125.081 20.2399 124.057 19.6319C123.065 19.0239 122.265 18.2239 121.657 17.2319C121.049 16.2079 120.745 15.0719 120.745 13.8239V6.71991C120.745 5.50391 121.049 4.39991 121.657 3.40791C122.265 2.38391 123.065 1.56791 124.057 0.959908C125.081 0.351909 126.201 0.0479088 127.417 0.0479088H148.633C149.849 0.0479088 150.953 0.351909 151.945 0.959908C152.969 1.56791 153.785 2.38391 154.393 3.40791C155.001 4.39991 155.305 5.50391 155.305 6.71991V9.35991H148.921V7.00791C148.921 6.84791 148.857 6.71991 148.729 6.62391C148.633 6.49591 148.505 6.43191 148.345 6.43191H127.657C127.497 6.43191 127.353 6.49591 127.225 6.62391C127.129 6.71991 127.081 6.84791 127.081 7.00791V13.5839C127.081 13.7439 127.129 13.8719 127.225 13.9679C127.353 14.0639 127.497 14.1119 127.657 14.1119H148.633C149.849 14.1119 150.953 14.4159 151.945 15.0239C152.969 15.6319 153.785 16.4479 154.393 17.4719C155.001 18.4639 155.305 19.5839 155.305 20.8319V27.9359C155.305 29.1519 155.001 30.2719 154.393 31.2959C153.785 32.2879 152.969 33.0879 151.945 33.6959C150.953 34.3039 149.849 34.6079 148.633 34.6079H127.417ZM175.217 34.6079V0.0479088H182.177L194.705 14.9759L207.185 0.0479088H214.193V34.6079H207.809V9.26391L194.705 24.8639L181.553 9.31191V34.6079H175.217ZM217.109 34.6079V32.9279L244.421 0.0479088H251.285V34.6079H244.949V25.8239H231.221L223.877 34.6079H217.109ZM236.501 19.5359H244.949V9.64791L236.501 19.5359ZM256.968 34.6079V0.0479088H263.352V14.1119H271.464L283.272 0.0479088H290.184V1.87191L277.224 17.3279L290.232 32.7839V34.6079H283.272L271.464 20.5439H263.352V34.6079H256.968ZM295.266 34.6079V0.0479088H327.09V6.43191H301.65V14.1119H322.098V20.5439H301.65V28.2239H327.09V34.6079H295.266ZM343.952 34.6079V32.9279L371.264 0.0479088H378.128V34.6079H371.792V25.8239H358.064L350.72 34.6079H343.952ZM363.344 19.5359H371.792V9.64791L363.344 19.5359ZM119.405 94.6079V60.0479H125.789V85.3919L147.149 60.0479H154.013V61.8239L143.309 74.3519V85.3919L164.621 60.0479H171.533V61.7759L143.885 94.6079H136.925V82.0319L126.365 94.6079H119.405ZM173.561 94.6079V60.0479H179.849V94.6079H173.561ZM191.027 94.6079C189.811 94.6079 188.691 94.3039 187.667 93.6959C186.675 93.0879 185.875 92.2879 185.267 91.2959C184.659 90.2719 184.355 89.1519 184.355 87.9359V85.2959H190.691V87.6479C190.691 87.8079 190.739 87.9519 190.835 88.0799C190.963 88.1759 191.107 88.2239 191.267 88.2239H211.955C212.115 88.2239 212.243 88.1759 212.339 88.0799C212.467 87.9519 212.531 87.8079 212.531 87.6479V81.0719C212.531 80.9119 212.467 80.7839 212.339 80.6879C212.243 80.5919 212.115 80.5439 211.955 80.5439H191.027C189.811 80.5439 188.691 80.2399 187.667 79.6319C186.675 79.0239 185.875 78.2239 185.267 77.2319C184.659 76.2079 184.355 75.0719 184.355 73.8239V66.7199C184.355 65.5039 184.659 64.3999 185.267 63.4079C185.875 62.3839 186.675 61.5679 187.667 60.9599C188.691 60.3519 189.811 60.0479 191.027 60.0479H212.243C213.459 60.0479 214.563 60.3519 215.555 60.9599C216.579 61.5679 217.395 62.3839 218.003 63.4079C218.611 64.3999 218.915 65.5039 218.915 66.7199V69.3599H212.531V67.0079C212.531 66.8479 212.467 66.7199 212.339 66.6239C212.243 66.4959 212.115 66.4319 211.955 66.4319H191.267C191.107 66.4319 190.963 66.4959 190.835 66.6239C190.739 66.7199 190.691 66.8479 190.691 67.0079V73.5839C190.691 73.7439 190.739 73.8719 190.835 73.9679C190.963 74.0639 191.107 74.1119 191.267 74.1119H212.243C213.459 74.1119 214.563 74.4159 215.555 75.0239C216.579 75.6319 217.395 76.4479 218.003 77.4719C218.611 78.4639 218.915 79.5839 218.915 80.8319V87.9359C218.915 89.1519 218.611 90.2719 218.003 91.2959C217.395 92.2879 216.579 93.0879 215.555 93.6959C214.563 94.3039 213.459 94.6079 212.243 94.6079H191.027ZM224.203 94.6079V60.0479H230.539V74.1119H253.195V60.0479H259.531V94.6079H253.195V80.5439H230.539V94.6079H224.203Z" fill="white"/>
</svg>
