<svg width="256" height="47" viewBox="0 0 256 47" fill="none" xmlns="http://www.w3.org/2000/svg">
<path d="M1.57356e-05 46.0801V7.62939e-05H9.28002L25.984 19.9041L42.624 7.62939e-05H51.968V46.0801H43.456V12.2881L25.984 33.0881L8.44802 12.3521V46.0801H1.57356e-05ZM55.855 46.0801V43.8401L92.271 7.62939e-05H101.423V46.0801H92.975V34.3681H74.671L64.879 46.0801H55.855ZM81.711 25.9841H92.975V12.8001L81.711 25.9841ZM109.002 46.0801V7.62939e-05H117.514V18.7521H128.33L144.074 7.62939e-05H153.29V2.43208L136.01 23.0401L153.354 43.6481V46.0801H144.074L128.33 27.3281H117.514V46.0801H109.002ZM159.938 46.0801V7.62939e-05H169.218L197.506 33.6641V7.62939e-05H206.018V46.0801H196.738L168.386 12.3521V46.0801H159.938ZM209.668 46.0801V43.8401L246.084 7.62939e-05H255.236V46.0801H246.788V34.3681H228.484L218.692 46.0801H209.668ZM235.524 25.9841H246.788V12.8001L235.524 25.9841Z" fill="white"/>
</svg>
