<svg width="392" height="95" viewBox="0 0 392 95" fill="none" xmlns="http://www.w3.org/2000/svg">
<path d="M6.67152 34.5601C5.45552 34.5601 4.33552 34.2561 3.31152 33.6481C2.31952 33.0401 1.51952 32.2401 0.911524 31.2481C0.303524 30.2241 -0.00047648 29.1041 -0.00047648 27.8881V6.67206C-0.00047648 5.45606 0.303524 4.35206 0.911524 3.36006C1.51952 2.33606 2.31952 1.52006 3.31152 0.912057C4.33552 0.304057 5.45552 5.72205e-05 6.67152 5.72205e-05H27.8395C29.0555 5.72205e-05 30.1755 0.304057 31.1995 0.912057C32.2235 1.52006 33.0395 2.33606 33.6475 3.36006C34.2555 4.35206 34.5595 5.45606 34.5595 6.67206V9.36006H28.1755V6.96006C28.1755 6.80006 28.1115 6.67206 27.9835 6.57606C27.8555 6.44806 27.7115 6.38406 27.5515 6.38406H6.91152C6.75152 6.38406 6.60752 6.44806 6.47952 6.57606C6.38352 6.67206 6.33552 6.80006 6.33552 6.96006V27.6001C6.33552 27.7601 6.38352 27.9041 6.47952 28.0321C6.60752 28.1281 6.75152 28.1761 6.91152 28.1761H27.5515C27.7115 28.1761 27.8555 28.1281 27.9835 28.0321C28.1115 27.9041 28.1755 27.7601 28.1755 27.6001V21.3601H20.3515V14.9761H34.5595V27.8881C34.5595 29.1041 34.2555 30.2241 33.6475 31.2481C33.0395 32.2401 32.2235 33.0401 31.1995 33.6481C30.1755 34.2561 29.0555 34.5601 27.8395 34.5601H6.67152ZM46.4193 34.5601C45.2033 34.5601 44.0833 34.2561 43.0593 33.6481C42.0673 33.0401 41.2673 32.2401 40.6593 31.2481C40.0513 30.2241 39.7473 29.1041 39.7473 27.8881V5.72205e-05H46.0833V27.6001C46.0833 27.7601 46.1313 27.9041 46.2273 28.0321C46.3553 28.1281 46.4993 28.1761 46.6593 28.1761H67.2993C67.4593 28.1761 67.6033 28.1281 67.7313 28.0321C67.8593 27.9041 67.9233 27.7601 67.9233 27.6001V5.72205e-05H74.3073V27.8881C74.3073 29.1041 74.0033 30.2241 73.3953 31.2481C72.7873 32.2401 71.9713 33.0401 70.9473 33.6481C69.9553 34.2561 68.8513 34.5601 67.6353 34.5601H46.4193ZM79.6893 34.5601V5.72205e-05H111.513V6.38406H86.0733V14.0641H106.521V20.4961H86.0733V28.1761H111.513V34.5601H79.6893ZM122.871 34.5601C121.655 34.5601 120.535 34.2561 119.511 33.6481C118.519 33.0401 117.719 32.2401 117.111 31.2481C116.503 30.2241 116.199 29.1041 116.199 27.8881V25.2481H122.535V27.6001C122.535 27.7601 122.583 27.9041 122.679 28.0321C122.807 28.1281 122.951 28.1761 123.111 28.1761H143.799C143.959 28.1761 144.087 28.1281 144.183 28.0321C144.311 27.9041 144.375 27.7601 144.375 27.6001V21.0241C144.375 20.8641 144.311 20.7361 144.183 20.6401C144.087 20.5441 143.959 20.4961 143.799 20.4961H122.871C121.655 20.4961 120.535 20.1921 119.511 19.5841C118.519 18.9761 117.719 18.1761 117.111 17.1841C116.503 16.1601 116.199 15.0241 116.199 13.7761V6.67206C116.199 5.45606 116.503 4.35206 117.111 3.36006C117.719 2.33606 118.519 1.52006 119.511 0.912057C120.535 0.304057 121.655 5.72205e-05 122.871 5.72205e-05H144.087C145.303 5.72205e-05 146.407 0.304057 147.399 0.912057C148.423 1.52006 149.239 2.33606 149.847 3.36006C150.455 4.35206 150.759 5.45606 150.759 6.67206V9.31206H144.375V6.96006C144.375 6.80006 144.311 6.67206 144.183 6.57606C144.087 6.44806 143.959 6.38406 143.799 6.38406H123.111C122.951 6.38406 122.807 6.44806 122.679 6.57606C122.583 6.67206 122.535 6.80006 122.535 6.96006V13.5361C122.535 13.6961 122.583 13.8241 122.679 13.9201C122.807 14.0161 122.951 14.0641 123.111 14.0641H144.087C145.303 14.0641 146.407 14.3681 147.399 14.9761C148.423 15.5841 149.239 16.4001 149.847 17.4241C150.455 18.4161 150.759 19.5361 150.759 20.7841V27.8881C150.759 29.1041 150.455 30.2241 149.847 31.2481C149.239 32.2401 148.423 33.0401 147.399 33.6481C146.407 34.2561 145.303 34.5601 144.087 34.5601H122.871ZM162.528 34.5601C161.312 34.5601 160.192 34.2561 159.168 33.6481C158.176 33.0401 157.376 32.2401 156.768 31.2481C156.16 30.2241 155.856 29.1041 155.856 27.8881V25.2481H162.192V27.6001C162.192 27.7601 162.24 27.9041 162.336 28.0321C162.464 28.1281 162.608 28.1761 162.768 28.1761H183.456C183.616 28.1761 183.744 28.1281 183.84 28.0321C183.968 27.9041 184.032 27.7601 184.032 27.6001V21.0241C184.032 20.8641 183.968 20.7361 183.84 20.6401C183.744 20.5441 183.616 20.4961 183.456 20.4961H162.528C161.312 20.4961 160.192 20.1921 159.168 19.5841C158.176 18.9761 157.376 18.1761 156.768 17.1841C156.16 16.1601 155.856 15.0241 155.856 13.7761V6.67206C155.856 5.45606 156.16 4.35206 156.768 3.36006C157.376 2.33606 158.176 1.52006 159.168 0.912057C160.192 0.304057 161.312 5.72205e-05 162.528 5.72205e-05H183.744C184.96 5.72205e-05 186.064 0.304057 187.056 0.912057C188.08 1.52006 188.896 2.33606 189.504 3.36006C190.112 4.35206 190.416 5.45606 190.416 6.67206V9.31206H184.032V6.96006C184.032 6.80006 183.968 6.67206 183.84 6.57606C183.744 6.44806 183.616 6.38406 183.456 6.38406H162.768C162.608 6.38406 162.464 6.44806 162.336 6.57606C162.24 6.67206 162.192 6.80006 162.192 6.96006V13.5361C162.192 13.6961 162.24 13.8241 162.336 13.9201C162.464 14.0161 162.608 14.0641 162.768 14.0641H183.744C184.96 14.0641 186.064 14.3681 187.056 14.9761C188.08 15.5841 188.896 16.4001 189.504 17.4241C190.112 18.4161 190.416 19.5361 190.416 20.7841V27.8881C190.416 29.1041 190.112 30.2241 189.504 31.2481C188.896 32.2401 188.08 33.0401 187.056 33.6481C186.064 34.2561 184.96 34.5601 183.744 34.5601H162.528ZM211 34.5601V5.72205e-05H217.384V25.3441L238.744 5.72205e-05H245.608V1.77606L234.904 14.3041V25.3441L256.216 5.72205e-05H263.128V1.72806L235.48 34.5601H228.52V21.9841L217.96 34.5601H211ZM265.876 34.5601V5.72205e-05H272.212V14.0641H294.868V5.72205e-05H301.204V34.5601H294.868V20.4961H272.212V34.5601H265.876ZM313.232 34.5601C312.016 34.5601 310.896 34.2561 309.872 33.6481C308.88 33.0401 308.08 32.2401 307.472 31.2481C306.864 30.2241 306.56 29.1041 306.56 27.8881V6.67206C306.56 5.45606 306.864 4.35206 307.472 3.36006C308.08 2.33606 308.88 1.52006 309.872 0.912057C310.896 0.304057 312.016 5.72205e-05 313.232 5.72205e-05H334.448C335.664 5.72205e-05 336.768 0.304057 337.76 0.912057C338.784 1.52006 339.6 2.33606 340.208 3.36006C340.816 4.35206 341.12 5.45606 341.12 6.67206V27.8881C341.12 29.1041 340.816 30.2241 340.208 31.2481C339.6 32.2401 338.784 33.0401 337.76 33.6481C336.768 34.2561 335.664 34.5601 334.448 34.5601H313.232ZM313.472 28.1761H334.112C334.272 28.1761 334.416 28.1281 334.544 28.0321C334.672 27.9041 334.736 27.7601 334.736 27.6001V6.96006C334.736 6.80006 334.672 6.67206 334.544 6.57606C334.416 6.44806 334.272 6.38406 334.112 6.38406H313.472C313.312 6.38406 313.168 6.44806 313.04 6.57606C312.944 6.67206 312.896 6.80006 312.896 6.96006V27.6001C312.896 27.7601 312.944 27.9041 313.04 28.0321C313.168 28.1281 313.312 28.1761 313.472 28.1761ZM346.31 12.6721V0.432057H352.598V6.04806C352.598 7.10406 352.326 8.09606 351.782 9.02406C351.238 9.95206 350.486 10.7361 349.526 11.3761C348.566 12.0161 347.494 12.4481 346.31 12.6721ZM363.293 34.5601C362.077 34.5601 360.957 34.2561 359.933 33.6481C358.941 33.0401 358.141 32.2401 357.533 31.2481C356.925 30.2241 356.621 29.1041 356.621 27.8881V25.2481H362.957V27.6001C362.957 27.7601 363.005 27.9041 363.101 28.0321C363.229 28.1281 363.373 28.1761 363.533 28.1761H384.221C384.381 28.1761 384.509 28.1281 384.605 28.0321C384.733 27.9041 384.797 27.7601 384.797 27.6001V21.0241C384.797 20.8641 384.733 20.7361 384.605 20.6401C384.509 20.5441 384.381 20.4961 384.221 20.4961H363.293C362.077 20.4961 360.957 20.1921 359.933 19.5841C358.941 18.9761 358.141 18.1761 357.533 17.1841C356.925 16.1601 356.621 15.0241 356.621 13.7761V6.67206C356.621 5.45606 356.925 4.35206 357.533 3.36006C358.141 2.33606 358.941 1.52006 359.933 0.912057C360.957 0.304057 362.077 5.72205e-05 363.293 5.72205e-05H384.509C385.725 5.72205e-05 386.829 0.304057 387.821 0.912057C388.845 1.52006 389.661 2.33606 390.269 3.36006C390.877 4.35206 391.181 5.45606 391.181 6.67206V9.31206H384.797V6.96006C384.797 6.80006 384.733 6.67206 384.605 6.57606C384.509 6.44806 384.381 6.38406 384.221 6.38406H363.533C363.373 6.38406 363.229 6.44806 363.101 6.57606C363.005 6.67206 362.957 6.80006 362.957 6.96006V13.5361C362.957 13.6961 363.005 13.8241 363.101 13.9201C363.229 14.0161 363.373 14.0641 363.533 14.0641H384.509C385.725 14.0641 386.829 14.3681 387.821 14.9761C388.845 15.5841 389.661 16.4001 390.269 17.4241C390.877 18.4161 391.181 19.5361 391.181 20.7841V27.8881C391.181 29.1041 390.877 30.2241 390.269 31.2481C389.661 32.2401 388.845 33.0401 387.821 33.6481C386.829 34.2561 385.725 34.5601 384.509 34.5601H363.293ZM105.024 94.5601V60.0001H111.36V74.0641H134.016V60.0001H140.352V94.5601H134.016V80.4961H111.36V94.5601H105.024ZM145.9 94.5601V60.0001H177.724V66.3841H152.284V74.0641H172.732V80.4961H152.284V88.1761H177.724V94.5601H145.9ZM210.106 94.5601L199.69 82.1281H207.994L217.018 92.7841V94.5601H210.106ZM182.554 94.5601V60.0481H210.394C211.61 60.0481 212.73 60.3521 213.754 60.9601C214.778 61.5681 215.594 62.3841 216.202 63.4081C216.81 64.4001 217.114 65.5041 217.114 66.7201V76.0321C217.114 77.2481 216.81 78.3681 216.202 79.3921C215.594 80.4161 214.778 81.2321 213.754 81.8401C212.73 82.4161 211.61 82.7041 210.394 82.7041L188.89 82.7521V94.5601H182.554ZM189.466 76.3201H210.106C210.266 76.3201 210.41 76.2721 210.538 76.1761C210.666 76.0801 210.73 75.9521 210.73 75.7921V66.9601C210.73 66.8001 210.666 66.6721 210.538 66.5761C210.41 66.4481 210.266 66.3841 210.106 66.3841H189.466C189.306 66.3841 189.162 66.4481 189.034 66.5761C188.938 66.6721 188.89 66.8001 188.89 66.9601V75.7921C188.89 75.9521 188.938 76.0801 189.034 76.1761C189.162 76.2721 189.306 76.3201 189.466 76.3201ZM222.26 94.5601V60.0001H254.084V66.3841H228.644V74.0641H249.092V80.4961H228.644V88.1761H254.084V94.5601H222.26ZM262.754 85.1521V81.9361C262.754 80.7201 263.042 79.6161 263.618 78.6241C264.226 77.6001 265.026 76.8001 266.018 76.2241C267.042 75.6161 268.146 75.3121 269.33 75.3121H280.946C281.106 75.3121 281.234 75.2641 281.33 75.1681C281.458 75.0401 281.522 74.8961 281.522 74.7361V66.9121C281.522 66.7521 281.458 66.6241 281.33 66.5281C281.234 66.4001 281.106 66.3361 280.946 66.3361H257.714V60.0001H281.186C282.37 60.0001 283.458 60.3041 284.45 60.9121C285.474 61.5201 286.29 62.3201 286.898 63.3121C287.506 64.3041 287.81 65.4081 287.81 66.6241V75.0241C287.81 76.2401 287.506 77.3441 286.898 78.3361C286.29 79.3281 285.474 80.1281 284.45 80.7361C283.458 81.3441 282.37 81.6481 281.186 81.6481H269.666C269.506 81.6481 269.362 81.7121 269.234 81.8401C269.106 81.9361 269.042 82.0641 269.042 82.2241V85.1521H262.754ZM262.754 94.5601V88.2721H269.042V94.5601H262.754Z" fill="white"/>
</svg>
