<svg width="177" height="66" viewBox="0 0 177 66" fill="none" xmlns="http://www.w3.org/2000/svg">
<path d="M117.784 29.0967L118.72 26.8767H117.28L117.424 25.8567H119.152L120.22 23.3847H118.78L118.924 22.3647H120.652L121.6 20.1567H122.764L121.828 22.3647H124.168L125.104 20.1567H126.268L125.332 22.3647H126.772L126.628 23.3847H124.9L123.832 25.8567H125.272L125.128 26.8767H123.4L122.464 29.0967H121.288L122.224 26.8767H119.896L118.948 29.0967H117.784ZM120.328 25.8567H122.668L123.724 23.3847H121.384L120.328 25.8567ZM130.949 29.2407C130.301 29.2407 129.737 29.0807 129.257 28.7607C128.785 28.4407 128.421 27.9887 128.165 27.4047C127.917 26.8207 127.793 26.1367 127.793 25.3527C127.793 24.6487 127.881 23.9767 128.057 23.3367C128.241 22.6967 128.505 22.1287 128.849 21.6327C129.201 21.1367 129.625 20.7447 130.121 20.4567C130.617 20.1607 131.181 20.0127 131.813 20.0127C132.461 20.0127 133.021 20.1727 133.493 20.4927C133.965 20.8127 134.329 21.2607 134.585 21.8367C134.841 22.4127 134.969 23.0927 134.969 23.8767C134.969 24.5807 134.877 25.2527 134.693 25.8927C134.517 26.5327 134.257 27.1047 133.913 27.6087C133.577 28.1047 133.157 28.5007 132.653 28.7967C132.157 29.0927 131.589 29.2407 130.949 29.2407ZM130.973 28.1487C131.445 28.1487 131.857 28.0247 132.209 27.7767C132.561 27.5207 132.853 27.1847 133.085 26.7687C133.317 26.3527 133.489 25.8927 133.601 25.3887C133.721 24.8767 133.781 24.3687 133.781 23.8647C133.781 23.0167 133.605 22.3447 133.253 21.8487C132.901 21.3527 132.409 21.1047 131.777 21.1047C131.321 21.1047 130.917 21.2287 130.565 21.4767C130.213 21.7167 129.917 22.0407 129.677 22.4487C129.445 22.8567 129.269 23.3167 129.149 23.8287C129.029 24.3327 128.969 24.8447 128.969 25.3647C128.969 25.9327 129.049 26.4247 129.209 26.8407C129.369 27.2567 129.597 27.5807 129.893 27.8127C130.197 28.0367 130.557 28.1487 130.973 28.1487ZM139.667 29.2407C139.019 29.2407 138.455 29.0807 137.975 28.7607C137.503 28.4407 137.139 27.9887 136.883 27.4047C136.635 26.8207 136.511 26.1367 136.511 25.3527C136.511 24.6487 136.599 23.9767 136.775 23.3367C136.959 22.6967 137.223 22.1287 137.567 21.6327C137.919 21.1367 138.343 20.7447 138.839 20.4567C139.335 20.1607 139.899 20.0127 140.531 20.0127C141.179 20.0127 141.739 20.1727 142.211 20.4927C142.683 20.8127 143.047 21.2607 143.303 21.8367C143.559 22.4127 143.687 23.0927 143.687 23.8767C143.687 24.5807 143.595 25.2527 143.411 25.8927C143.235 26.5327 142.975 27.1047 142.631 27.6087C142.295 28.1047 141.875 28.5007 141.371 28.7967C140.875 29.0927 140.307 29.2407 139.667 29.2407ZM139.691 28.1487C140.163 28.1487 140.575 28.0247 140.927 27.7767C141.279 27.5207 141.571 27.1847 141.803 26.7687C142.035 26.3527 142.207 25.8927 142.319 25.3887C142.439 24.8767 142.499 24.3687 142.499 23.8647C142.499 23.0167 142.323 22.3447 141.971 21.8487C141.619 21.3527 141.127 21.1047 140.495 21.1047C140.039 21.1047 139.635 21.2287 139.283 21.4767C138.931 21.7167 138.635 22.0407 138.395 22.4487C138.163 22.8567 137.987 23.3167 137.867 23.8287C137.747 24.3327 137.687 24.8447 137.687 25.3647C137.687 25.9327 137.767 26.4247 137.927 26.8407C138.087 27.2567 138.315 27.5807 138.611 27.8127C138.915 28.0367 139.275 28.1487 139.691 28.1487ZM149.274 29.2407C148.698 29.2407 148.162 29.1447 147.666 28.9527C147.17 28.7527 146.738 28.4647 146.37 28.0887C146.002 27.7127 145.714 27.2647 145.506 26.7447C145.298 26.2167 145.194 25.6247 145.194 24.9687C145.194 24.2807 145.31 23.6367 145.542 23.0367C145.774 22.4367 146.098 21.9127 146.514 21.4647C146.938 21.0087 147.434 20.6527 148.002 20.3967C148.57 20.1407 149.186 20.0127 149.85 20.0127C150.49 20.0127 151.05 20.1247 151.53 20.3487C152.018 20.5647 152.418 20.8487 152.73 21.2007C153.05 21.5447 153.27 21.9087 153.39 22.2927L152.274 22.7607C152.098 22.2647 151.802 21.8647 151.386 21.5607C150.978 21.2567 150.458 21.1047 149.826 21.1047C149.33 21.1047 148.87 21.2007 148.446 21.3927C148.03 21.5847 147.666 21.8567 147.354 22.2087C147.042 22.5607 146.798 22.9727 146.622 23.4447C146.454 23.9087 146.37 24.4167 146.37 24.9687C146.37 25.6087 146.49 26.1687 146.73 26.6487C146.978 27.1207 147.322 27.4887 147.762 27.7527C148.202 28.0167 148.71 28.1487 149.286 28.1487C149.926 28.1487 150.478 27.9927 150.942 27.6807C151.406 27.3687 151.762 26.9647 152.01 26.4687L153.066 26.9967C152.89 27.3807 152.622 27.7447 152.262 28.0887C151.902 28.4327 151.47 28.7127 150.966 28.9287C150.462 29.1367 149.898 29.2407 149.274 29.2407ZM154.254 29.0967L154.338 28.2807L157.086 25.6047C157.502 25.1887 157.858 24.8327 158.154 24.5367C158.458 24.2407 158.702 23.9767 158.886 23.7447C159.078 23.5127 159.218 23.2887 159.306 23.0727C159.394 22.8487 159.438 22.6087 159.438 22.3527C159.438 21.9527 159.31 21.6367 159.054 21.4047C158.806 21.1727 158.458 21.0567 158.01 21.0567C157.538 21.0567 157.118 21.1967 156.75 21.4767C156.39 21.7567 156.118 22.1527 155.934 22.6647L154.89 22.3407C155.042 21.8607 155.27 21.4487 155.574 21.1047C155.886 20.7527 156.25 20.4847 156.666 20.3007C157.09 20.1087 157.55 20.0127 158.046 20.0127C158.542 20.0127 158.986 20.1047 159.378 20.2887C159.77 20.4727 160.074 20.7327 160.29 21.0687C160.514 21.4047 160.626 21.8047 160.626 22.2687C160.626 22.5807 160.578 22.8767 160.482 23.1567C160.386 23.4287 160.246 23.7007 160.062 23.9727C159.878 24.2367 159.654 24.5087 159.39 24.7887C159.134 25.0687 158.838 25.3647 158.502 25.6767L155.994 28.0767H160.242L160.11 29.0967H154.254ZM161.779 29.0967L163.027 20.1567H168.703L168.559 21.2367H164.071L163.663 24.1287H167.719L167.575 25.2087H163.507L162.967 29.0967H161.779ZM168.775 29.0967L170.023 20.1567H175.699L175.555 21.2367H171.067L170.659 24.1287H174.715L174.571 25.2087H170.503L169.963 29.0967H168.775Z" fill="white"/>
<path d="M1.36799 64.344C1.45146 65.1682 2.18728 65.7687 3.01149 65.6852L16.4428 64.325C17.267 64.2415 17.8675 63.5057 17.784 62.6815C17.7005 61.8573 16.9647 61.2568 16.1405 61.3403L4.20158 62.5494L2.99246 50.6104C2.90898 49.7862 2.17316 49.1857 1.34895 49.2692C0.524738 49.3527 -0.0757488 50.0885 0.00772359 50.9127L1.36799 64.344ZM23.952 38.3477V36.8477H23.24L22.7899 37.3993L23.952 38.3477ZM174.718 39.8477C175.547 39.8477 176.218 39.1761 176.218 38.3477C176.218 37.5192 175.547 36.8477 174.718 36.8477V38.3477V39.8477ZM2.86035 64.1929L4.02249 65.1413L25.1141 39.296L23.952 38.3477L22.7899 37.3993L1.69822 63.2445L2.86035 64.1929ZM23.952 38.3477V39.8477H174.718V38.3477V36.8477H23.952V38.3477Z" fill="white"/>
</svg>
