<svg width="177" height="55" viewBox="0 0 177 55" fill="none" xmlns="http://www.w3.org/2000/svg">
<path d="M1.36799 9.84739C1.45146 9.02318 2.18728 8.42269 3.01149 8.50616L16.4428 9.86642C17.267 9.9499 17.8675 10.6857 17.784 11.5099C17.7005 12.3341 16.9647 12.9346 16.1405 12.8512L4.20158 11.642L2.99246 23.581C2.90898 24.4052 2.17316 25.0057 1.34895 24.9222C0.524738 24.8387 -0.0757488 24.1029 0.00772359 23.2787L1.36799 9.84739ZM23.952 35.8438V37.3438H23.24L22.7899 36.7921L23.952 35.8438ZM174.718 34.3438C175.547 34.3438 176.218 35.0153 176.218 35.8438C176.218 36.6722 175.547 37.3438 174.718 37.3438V35.8438V34.3438ZM2.86035 9.99853L4.02249 9.05014L25.1141 34.8954L23.952 35.8438L22.7899 36.7921L1.69822 10.9469L2.86035 9.99853ZM23.952 35.8438V34.3438H174.718V35.8438V37.3438H23.952V35.8438Z" fill="white"/>
<path d="M121.187 54L122.123 51.78H120.683L120.827 50.76H122.555L123.623 48.288H122.183L122.327 47.268H124.055L125.003 45.06H126.167L125.231 47.268H127.571L128.507 45.06H129.671L128.735 47.268H130.175L130.031 48.288H128.303L127.235 50.76H128.675L128.531 51.78H126.803L125.867 54H124.691L125.627 51.78H123.299L122.351 54H121.187ZM123.731 50.76H126.071L127.127 48.288H124.787L123.731 50.76ZM131.507 54L135.011 49.98L135.287 50.016C135.151 50.176 135.003 50.304 134.843 50.4C134.691 50.488 134.531 50.552 134.363 50.592C134.195 50.624 134.011 50.64 133.811 50.64C133.331 50.64 132.899 50.536 132.515 50.328C132.139 50.112 131.839 49.812 131.615 49.428C131.391 49.044 131.279 48.6 131.279 48.096C131.279 47.496 131.423 46.956 131.711 46.476C132.007 45.996 132.399 45.616 132.887 45.336C133.375 45.056 133.923 44.916 134.531 44.916C135.067 44.916 135.535 45.028 135.935 45.252C136.343 45.468 136.659 45.776 136.883 46.176C137.107 46.568 137.219 47.024 137.219 47.544C137.219 47.952 137.155 48.344 137.027 48.72C136.907 49.088 136.739 49.44 136.523 49.776C136.307 50.112 136.067 50.432 135.803 50.736L132.983 54H131.507ZM134.039 49.608C134.415 49.608 134.751 49.52 135.047 49.344C135.351 49.16 135.591 48.912 135.767 48.6C135.951 48.288 136.043 47.94 136.043 47.556C136.043 47.084 135.895 46.7 135.599 46.404C135.311 46.108 134.935 45.96 134.471 45.96C134.111 45.96 133.779 46.052 133.475 46.236C133.171 46.42 132.927 46.672 132.743 46.992C132.559 47.304 132.467 47.652 132.467 48.036C132.467 48.508 132.611 48.888 132.899 49.176C133.195 49.464 133.575 49.608 134.039 49.608ZM142.446 54.144C141.87 54.144 141.334 54.048 140.838 53.856C140.342 53.656 139.91 53.368 139.542 52.992C139.174 52.616 138.886 52.168 138.678 51.648C138.47 51.12 138.366 50.528 138.366 49.872C138.366 49.184 138.482 48.54 138.714 47.94C138.946 47.34 139.27 46.816 139.686 46.368C140.11 45.912 140.606 45.556 141.174 45.3C141.742 45.044 142.358 44.916 143.022 44.916C143.662 44.916 144.222 45.028 144.702 45.252C145.19 45.468 145.59 45.752 145.902 46.104C146.222 46.448 146.442 46.812 146.562 47.196L145.446 47.664C145.27 47.168 144.974 46.768 144.558 46.464C144.15 46.16 143.63 46.008 142.998 46.008C142.502 46.008 142.042 46.104 141.618 46.296C141.202 46.488 140.838 46.76 140.526 47.112C140.214 47.464 139.97 47.876 139.794 48.348C139.626 48.812 139.542 49.32 139.542 49.872C139.542 50.512 139.662 51.072 139.902 51.552C140.15 52.024 140.494 52.392 140.934 52.656C141.374 52.92 141.882 53.052 142.458 53.052C143.098 53.052 143.65 52.896 144.114 52.584C144.578 52.272 144.934 51.868 145.182 51.372L146.238 51.9C146.062 52.284 145.794 52.648 145.434 52.992C145.074 53.336 144.642 53.616 144.138 53.832C143.634 54.04 143.07 54.144 142.446 54.144ZM147.521 54L148.769 45.06H154.601L154.445 46.14H149.813L149.405 48.972H153.809L153.665 50.052H149.261L148.853 52.92H153.497L153.353 54H147.521ZM154.679 54L159.743 46.068H155.411L155.543 45.048H161.159L161.027 46.068L156.023 54H154.679ZM161.408 54L162.656 45.06H168.332L168.188 46.14H163.7L163.292 49.032H167.348L167.204 50.112H163.136L162.596 54H161.408ZM168.404 54L169.652 45.06H175.328L175.184 46.14H170.696L170.288 49.032H174.344L174.2 50.112H170.132L169.592 54H168.404Z" fill="white"/>
</svg>
