<svg width="210" height="210" viewBox="0 0 210 210" fill="none" xmlns="http://www.w3.org/2000/svg">
<path d="M0 105C0 118.789 2.71591 132.443 7.99265 145.182C13.2694 157.921 21.0036 169.496 30.7538 179.246C40.5039 188.996 52.0791 196.731 64.8182 202.007C77.5574 207.284 91.2112 210 105 210C118.789 210 132.443 207.284 145.182 202.007C157.921 196.731 169.496 188.996 179.246 179.246C188.996 169.496 196.731 157.921 202.007 145.182C207.284 132.443 210 118.789 210 105H158.222C158.222 111.989 156.845 118.91 154.171 125.367C151.496 131.824 147.576 137.691 142.633 142.633C137.691 147.576 131.824 151.496 125.367 154.171C118.91 156.845 111.989 158.222 105 158.222C98.0108 158.222 91.0901 156.845 84.6329 154.171C78.1757 151.496 72.3086 147.576 67.3665 142.633C62.4244 137.691 58.5041 131.824 55.8295 125.367C53.1548 118.91 51.7782 111.989 51.7782 105H0Z" fill="#9CE7FF"/>
<path d="M210 105C210 91.2112 207.284 77.5574 202.007 64.8182C196.731 52.0791 188.996 40.5039 179.246 30.7538C169.496 21.0036 157.921 13.2694 145.182 7.99265C132.443 2.7159 118.789 0 105 0C91.2112 0 77.5574 2.71591 64.8182 7.99265C52.079 13.2694 40.5039 21.0036 30.7538 30.7538C21.0036 40.504 13.2694 52.0791 7.99265 64.8183C2.7159 77.5574 -1.20545e-06 91.2112 0 105H51.7782C51.7782 98.0108 53.1548 91.0901 55.8295 84.6329C58.5041 78.1757 62.4244 72.3086 67.3665 67.3665C72.3086 62.4244 78.1757 58.5041 84.6329 55.8295C91.0901 53.1548 98.0108 51.7782 105 51.7782C111.989 51.7782 118.91 53.1548 125.367 55.8295C131.824 58.5041 137.691 62.4244 142.633 67.3665C147.576 72.3086 151.496 78.1757 154.171 84.6329C156.845 91.0901 158.222 98.0108 158.222 105H210Z" fill="#00C2FF"/>
</svg>
