<svg width="98" height="97" viewBox="0 0 98 97" fill="none" xmlns="http://www.w3.org/2000/svg">
<path d="M46.1233 4.97559C47.9568 1.13422 53.445 1.19451 55.1936 5.0752L65.9641 28.9805C66.1052 29.2936 66.3975 29.5129 66.7375 29.5605L91.4534 33.0156C95.4393 33.5728 97.1671 38.3705 94.4514 41.3408L77.3108 60.0879C77.0943 60.3249 77.0053 60.6515 77.0706 60.9658L82.4622 86.9004C83.3795 91.3133 78.4489 94.5915 74.7346 92.0381L54.9739 78.4521C54.648 78.2281 54.22 78.2177 53.8831 78.4248L28.8 93.8408C24.9781 96.1897 20.2359 92.7059 21.3342 88.3564L27.6975 63.1543C27.7862 62.8027 27.6782 62.4303 27.4143 62.1816L3.58032 39.7178C0.452189 36.7694 2.25616 31.5091 6.5354 31.1016L34.3811 28.4492C34.7308 28.4159 35.0374 28.2018 35.1887 27.8848L46.1233 4.97559Z" fill="#00FFFF" stroke="#00DBE2" stroke-width="4"/>
<path d="M48.6904 28.802C49.056 28.0304 50.1582 28.0425 50.5069 28.8219L55.5194 40.027C55.6599 40.3411 55.952 40.5609 56.2928 40.6088L67.7674 42.2243C68.5625 42.3363 68.9081 43.2922 68.3685 43.8867L60.4192 52.6436C60.2045 52.8801 60.1157 53.205 60.1803 53.5179L62.7096 65.7702C62.8921 66.654 61.9029 67.3082 61.161 66.7945L51.8021 60.3141C51.475 60.0876 51.0447 60.0766 50.7065 60.2859L39.0178 67.5211C38.2543 67.9937 37.3031 67.2986 37.5215 66.4276L40.5148 54.4892C40.6025 54.1392 40.495 53.7691 40.2333 53.5207L29.2518 43.0961C28.6297 42.5056 28.991 41.4573 29.8448 41.3754L42.7807 40.1346C43.1312 40.101 43.4382 39.8855 43.5889 39.5674L48.6904 28.802Z" fill="white" fill-opacity="0.5"/>
</svg>
